<svg width="68" height="69" viewBox="0 0 68 69" fill="none" xmlns="http://www.w3.org/2000/svg">
<path fill-rule="evenodd" clip-rule="evenodd" d="M58.859 23.663C63.4207 19.0844 63.2252 13.072 59.8195 9.38869C58.9626 8.46204 57.9274 7.7179 56.7759 7.20086C55.6245 6.68382 54.3806 6.40452 53.1187 6.37969C50.4298 6.31736 47.6475 7.34302 45.0777 9.49352C45.0118 9.5482 44.9485 9.60587 44.8879 9.66636L8.14235 46.5592C6.55476 48.1538 5.66424 50.3129 5.66602 52.563V57.3599C5.66602 60.4794 8.19335 63.0464 11.344 63.0464H16.1012C17.22 63.0461 18.3278 62.825 19.361 62.3957C20.3942 61.9664 21.3325 61.3373 22.122 60.5445L58.859 23.663ZM48.7525 17.1265C48.4912 16.8559 48.1785 16.6401 47.8328 16.4916C47.4872 16.3431 47.1154 16.2649 46.7392 16.2616C46.3629 16.2584 45.9899 16.3301 45.6417 16.4725C45.2934 16.615 44.9771 16.8254 44.7111 17.0914C44.445 17.3574 44.2347 17.6738 44.0922 18.022C43.9497 18.3702 43.878 18.7433 43.8813 19.1195C43.8846 19.4957 43.9627 19.8675 44.1112 20.2132C44.2597 20.5588 44.4756 20.8715 44.7462 21.1329L47.5795 23.9662C47.8409 24.2368 48.1535 24.4527 48.4992 24.6011C48.8449 24.7496 49.2167 24.8278 49.5929 24.8311C49.9691 24.8343 50.3422 24.7626 50.6904 24.6202C51.0386 24.4777 51.3549 24.2673 51.621 24.0013C51.887 23.7353 52.0974 23.4189 52.2398 23.0707C52.3823 22.7225 52.454 22.3494 52.4507 21.9732C52.4475 21.597 52.3693 21.2252 52.2208 20.8795C52.0723 20.5339 51.8565 20.2212 51.5858 19.9599L48.7525 17.1265Z" fill="url(#paint0_linear_1337_35318)"/>
<defs>
<linearGradient id="paint0_linear_1337_35318" x1="58.5" y1="6" x2="6" y2="63" gradientUnits="userSpaceOnUse">
<stop stop-color="#FF7500"/>
<stop offset="0.9999" stop-color="#FFE7D2"/>
</linearGradient>
</defs>
</svg>
