<svg width="68" height="68" viewBox="0 0 68 68" fill="none" xmlns="http://www.w3.org/2000/svg">
<path fill-rule="evenodd" clip-rule="evenodd" d="M50.0446 8.83433C50.6831 8.87778 51.3187 8.925 51.9515 8.976C56.3148 9.34433 59.4995 13.0447 59.4995 17.3088V44.6278C59.4995 46.8822 58.6039 49.0442 57.0099 50.6382C55.4158 52.2323 53.2538 53.1278 50.9995 53.1278V46.75C50.9995 29.971 38.0341 16.2208 21.5781 14.9685C22.4961 11.7612 25.2615 9.2735 28.7975 8.97883C29.4321 8.92406 30.0677 8.87589 30.7043 8.83433C31.4215 7.45248 32.5045 6.29415 33.835 5.48573C35.1655 4.67731 36.6926 4.24985 38.2495 4.25H42.4995C44.0563 4.24985 45.5834 4.67731 46.9139 5.48573C48.2445 6.29415 49.3274 7.45248 50.0446 8.83433ZM33.9995 12.75C33.9995 11.6228 34.4472 10.5418 35.2443 9.7448C36.0413 8.94777 37.1223 8.5 38.2495 8.5H42.4995C43.6266 8.5 44.7076 8.94777 45.5047 9.7448C46.3017 10.5418 46.7495 11.6228 46.7495 12.75H33.9995Z" fill="black"/>
<path fill-rule="evenodd" clip-rule="evenodd" d="M50.0446 8.83433C50.6831 8.87778 51.3187 8.925 51.9515 8.976C56.3148 9.34433 59.4995 13.0447 59.4995 17.3088V44.6278C59.4995 46.8822 58.6039 49.0442 57.0099 50.6382C55.4158 52.2323 53.2538 53.1278 50.9995 53.1278V46.75C50.9995 29.971 38.0341 16.2208 21.5781 14.9685C22.4961 11.7612 25.2615 9.2735 28.7975 8.97883C29.4321 8.92406 30.0677 8.87589 30.7043 8.83433C31.4215 7.45248 32.5045 6.29415 33.835 5.48573C35.1655 4.67731 36.6926 4.24985 38.2495 4.25H42.4995C44.0563 4.24985 45.5834 4.67731 46.9139 5.48573C48.2445 6.29415 49.3274 7.45248 50.0446 8.83433ZM33.9995 12.75C33.9995 11.6228 34.4472 10.5418 35.2443 9.7448C36.0413 8.94777 37.1223 8.5 38.2495 8.5H42.4995C43.6266 8.5 44.7076 8.94777 45.5047 9.7448C46.3017 10.5418 46.7495 11.6228 46.7495 12.75H33.9995Z" fill="url(#paint0_linear_1337_35325)"/>
<path d="M8.5 24.4375C8.5 21.5022 10.88 19.125 13.8125 19.125H14.875C17.6929 19.125 20.3954 20.2444 22.388 22.237C24.3806 24.2296 25.5 26.9321 25.5 29.75V35.0625C25.5 37.9978 27.88 40.375 30.8125 40.375H36.125C37.5203 40.375 38.9019 40.6498 40.191 41.1838C41.4801 41.7177 42.6514 42.5004 43.638 43.487C44.6246 44.4736 45.4073 45.6449 45.9412 46.934C46.4752 48.2231 46.75 49.6047 46.75 51V58.4375C46.75 61.37 44.37 63.75 41.4375 63.75H13.8125C12.4035 63.75 11.0523 63.1903 10.056 62.194C9.05971 61.1977 8.5 59.8465 8.5 58.4375V24.4375Z" fill="black"/>
<path d="M8.5 24.4375C8.5 21.5022 10.88 19.125 13.8125 19.125H14.875C17.6929 19.125 20.3954 20.2444 22.388 22.237C24.3806 24.2296 25.5 26.9321 25.5 29.75V35.0625C25.5 37.9978 27.88 40.375 30.8125 40.375H36.125C37.5203 40.375 38.9019 40.6498 40.191 41.1838C41.4801 41.7177 42.6514 42.5004 43.638 43.487C44.6246 44.4736 45.4073 45.6449 45.9412 46.934C46.4752 48.2231 46.75 49.6047 46.75 51V58.4375C46.75 61.37 44.37 63.75 41.4375 63.75H13.8125C12.4035 63.75 11.0523 63.1903 10.056 62.194C9.05971 61.1977 8.5 59.8465 8.5 58.4375V24.4375Z" fill="url(#paint1_linear_1337_35325)"/>
<path d="M29.7508 29.75C29.7557 26.1759 28.4687 22.7204 26.127 20.0203C30.8677 21.2674 35.1922 23.7511 38.6585 27.2173C42.1247 30.6836 44.6084 35.0081 45.8555 39.7488C43.1554 37.407 39.6999 36.12 36.1258 36.125H30.8133C30.5315 36.125 30.2612 36.0131 30.062 35.8138C29.8627 35.6145 29.7508 35.3443 29.7508 35.0625V29.75Z" fill="black"/>
<path d="M29.7508 29.75C29.7557 26.1759 28.4687 22.7204 26.127 20.0203C30.8677 21.2674 35.1922 23.7511 38.6585 27.2173C42.1247 30.6836 44.6084 35.0081 45.8555 39.7488C43.1554 37.407 39.6999 36.12 36.1258 36.125H30.8133C30.5315 36.125 30.2612 36.0131 30.062 35.8138C29.8627 35.6145 29.7508 35.3443 29.7508 35.0625V29.75Z" fill="url(#paint2_linear_1337_35325)"/>
<defs>
<linearGradient id="paint0_linear_1337_35325" x1="40.5388" y1="4.25" x2="40.5388" y2="53.1278" gradientUnits="userSpaceOnUse">
<stop stop-color="#FF7500"/>
<stop offset="0.9999" stop-color="#FFE7D2"/>
</linearGradient>
<linearGradient id="paint1_linear_1337_35325" x1="27.625" y1="19.125" x2="27.625" y2="63.75" gradientUnits="userSpaceOnUse">
<stop stop-color="#FF7500"/>
<stop offset="0.9999" stop-color="#FFE7D2"/>
</linearGradient>
<linearGradient id="paint2_linear_1337_35325" x1="35.9912" y1="20.0203" x2="35.9912" y2="39.7488" gradientUnits="userSpaceOnUse">
<stop stop-color="#FF7500"/>
<stop offset="0.9999" stop-color="#FFE7D2"/>
</linearGradient>
</defs>
</svg>
