<svg width="70" height="70" viewBox="0 0 70 70" fill="none" xmlns="http://www.w3.org/2000/svg">
<g clip-path="url(#clip0_1337_35336)">
<path fill-rule="evenodd" clip-rule="evenodd" d="M39.0014 62.7762H14.0028C11.7928 62.7762 9.67327 61.8983 8.11056 60.3356C6.54785 58.7729 5.66992 56.6534 5.66992 54.4433V15.5567C5.66992 13.3467 6.54785 11.2272 8.11056 9.66445C9.67327 8.10174 11.7928 7.22382 14.0028 7.22382H55.6671C57.8771 7.22382 59.9966 8.10174 61.5593 9.66445C63.122 11.2272 63.9999 13.3467 63.9999 15.5567V54.4433C63.9999 56.6534 63.122 58.7729 61.5593 60.3356C59.9966 61.8983 57.8771 62.7762 55.6671 62.7762H39.0014ZM14.0028 54.4433C14.0028 55.4155 14.1694 56.3516 14.475 57.221H14.0028C13.2661 57.221 12.5596 56.9283 12.0387 56.4074C11.5178 55.8865 11.2252 55.18 11.2252 54.4433V15.5567C11.2252 14.82 11.5178 14.1135 12.0387 13.5926C12.5596 13.0717 13.2661 12.7791 14.0028 12.7791H14.475C14.1694 13.6484 14.0028 14.5845 14.0028 15.5567V54.4433ZM25.3226 22.8678C25.1836 23.2051 25.1125 23.5664 25.1133 23.9312C25.114 24.296 25.1866 24.657 25.3268 24.9937C25.4671 25.3304 25.6723 25.6362 25.9307 25.8936C26.1892 26.1511 26.4958 26.355 26.8331 26.494C27.1703 26.6329 27.5317 26.704 27.8964 26.7033L50.1174 26.6672C50.8541 26.6657 51.56 26.3716 52.0798 25.8497C52.5997 25.3277 52.8909 24.6206 52.8894 23.884C52.888 23.1473 52.5939 22.4414 52.072 21.9215C51.55 21.4017 50.8429 21.1104 50.1063 21.1119L27.8853 21.148C27.5206 21.1488 27.1595 21.2213 26.8228 21.3616C26.4861 21.5018 26.1803 21.7071 25.9229 21.9655C25.6655 22.2239 25.4615 22.5305 25.3226 22.8678ZM25.9239 33.1111C25.4041 33.6324 25.1125 34.3388 25.1133 35.075C25.114 35.4398 25.1866 35.8036 25.3268 36.1403C25.4671 36.477 25.6723 36.7828 25.9307 37.0402C26.1892 37.2976 26.4958 37.5016 26.8331 37.6405C27.1703 37.7795 27.5317 37.8506 27.8964 37.8498L50.1174 37.8137C50.8541 37.8123 51.56 37.5182 52.0798 36.9963C52.5997 36.4743 52.8909 35.7672 52.8894 35.0306C52.888 34.2939 52.5939 33.588 52.072 33.0681C51.55 32.5483 50.8429 32.257 50.1063 32.2585L27.8853 32.2946C27.1491 32.2961 26.4436 32.5898 25.9239 33.1111ZM25.9239 44.2216C25.4041 44.7429 25.1125 45.4493 25.1133 46.1855C25.114 46.5502 25.1866 46.9141 25.3268 47.2508C25.4671 47.5875 25.6723 47.8933 25.9307 48.1507C26.1892 48.4081 26.4958 48.6121 26.8331 48.751C27.1703 48.8899 27.5317 48.9611 27.8964 48.9603L50.1174 48.9242C50.8541 48.9227 51.56 48.6287 52.0798 48.1067C52.5997 47.5848 52.8909 46.8777 52.8894 46.141C52.888 45.4044 52.5939 44.6985 52.072 44.1786C51.55 43.6587 50.8429 43.3675 50.1063 43.369L27.8853 43.4051C27.1491 43.4066 26.4436 43.7002 25.9239 44.2216Z" fill="url(#paint0_linear_1337_35336)"/>
</g>
<defs>
<linearGradient id="paint0_linear_1337_35336" x1="34.8349" y1="7.22382" x2="34.8349" y2="62.7762" gradientUnits="userSpaceOnUse">
<stop stop-color="#FF7500"/>
<stop offset="0.9999" stop-color="#FFE7D2"/>
</linearGradient>
<clipPath id="clip0_1337_35336">
<rect width="58.33" height="55.5524" fill="white" transform="translate(5.66992 7.22382)"/>
</clipPath>
</defs>
</svg>
