<svg width="16" height="16" viewBox="0 0 16 16" fill="none" xmlns="http://www.w3.org/2000/svg">
<path d="M1.57911 7.75001C1.40816 7.75079 1.27292 7.84118 1.17962 7.93342C1.08409 8.02786 1.00692 8.1485 0.94709 8.2678C0.829638 8.50201 0.750027 8.79064 0.750027 9L0.750015 9.65959H0.75V10.5V10.5034C0.75 11.9279 1.90517 13.0907 3.33136 13.0907H11.2507L10.3282 13.9971L10.1483 14.1738L10.3266 14.3522L11.1512 15.1768L11.335 15.3606L11.5115 15.1697L14.4302 12.0138L14.5934 11.8373L14.4234 11.6673L11.5047 8.74863L11.328 8.57186L11.1512 8.74863L10.3266 9.57321L10.1498 9.74999L10.3266 9.92676L11.8219 11.422H3.33729C2.82875 11.422 2.41864 11.0119 2.41864 10.5034V9C2.41864 8.7908 2.33912 8.50064 2.22067 8.26526C2.16036 8.14543 2.08227 8.02405 1.9851 7.92951C1.88974 7.83674 1.75207 7.74766 1.57911 7.75001ZM1.57911 7.75001C1.57834 7.75002 1.57758 7.75003 1.57681 7.75004L1.58136 8V7.75C1.58061 7.75 1.57986 7.75 1.57911 7.75001ZM6.13324 6.925L4.56627 5.50338H12.6627C13.178 5.50338 13.5814 5.90245 13.5814 6.42202V8.06168C13.5814 8.29116 13.6929 8.57345 13.8339 8.78975C13.907 8.90178 13.9972 9.01075 14.1016 9.09437C14.2038 9.17626 14.3403 9.25 14.5 9.25C14.6669 9.25 14.7991 9.16997 14.893 9.07561C14.9849 8.98322 15.0524 8.86609 15.1016 8.75283C15.1996 8.52735 15.25 8.25883 15.25 8.06168V6.3449C15.25 4.88444 14.1001 3.84067 12.6686 3.84067H4.29842L5.68062 2.33787L5.84293 2.1614L5.67339 1.99185L4.84881 1.16728L4.66538 0.983846L4.48885 1.17393L1.39817 4.5019L1.22768 4.68547L1.41162 4.85557L4.95908 8.13608L5.13622 8.29989L5.30621 8.12868L6.14265 7.28631L6.32693 7.10073L6.13324 6.925ZM11.8619 12.8407H11.5052H11.8619Z" fill="#2b69b0" stroke="black" stroke-width="0.1"/>
</svg>
