<svg width="128" height="30" viewBox="0 0 128 30" fill="none" xmlns="http://www.w3.org/2000/svg">
<path d="M15.5212 29.9712C10.757 29.9712 7.57136 26.7483 7.57136 21.9428C7.57136 17.3099 10.9005 13.9431 15.4925 13.9431C20.6011 13.9431 24.0163 18.1156 23.1266 23.2089H12.6512C12.9095 25.1657 13.8279 26.144 15.4064 26.144C16.784 26.144 17.7024 25.5685 18.1329 24.4463H23.0405C22.0935 27.9857 19.367 29.9712 15.5212 29.9712ZM15.3777 17.5688C13.914 17.5688 13.053 18.4033 12.7086 20.1299H17.8746C17.8172 18.576 16.8414 17.5688 15.3777 17.5688Z" fill="#B43C00"/>
<path d="M24.6953 21.9715C24.6953 17.4825 27.4218 13.9431 31.5833 13.9431C33.1904 13.9431 34.568 14.5186 35.7734 15.6696V9.05121H40.6811V29.7122H36.1752V27.9569C34.9124 29.2806 33.3913 30 31.5833 30C27.4218 30 24.6953 26.403 24.6953 21.9715ZM29.8039 21.9715C29.8039 24.3887 31.2676 25.5685 32.7599 25.5685C34.281 25.5685 35.716 24.3887 35.716 21.9428C35.716 19.4681 34.2523 18.3746 32.7599 18.3746C31.2676 18.3746 29.8039 19.4968 29.8039 21.9715Z" fill="#B43C00"/>
<path d="M52.9515 23.065V14.2309H57.8591V29.7122H53.3533V28.0432C52.4923 29.1943 50.8564 30 49.0483 30C45.9774 30 43.6527 28.072 43.6527 23.9859V14.2309H48.5604V23.065C48.5604 24.7628 49.3927 25.5973 50.7703 25.5973C51.7461 25.5973 52.9515 24.8204 52.9515 23.065Z" fill="#B43C00"/>
<path d="M66.4631 23.671L62.4694 29.5781L58.4071 26.817L67.0709 14.0025L70.8006 16.5374L69.2708 18.8002C71.2593 17.9616 71.9812 19.293 71.9812 19.293V23.9859C69.3 21.7463 68.3795 20.8365 66.4631 23.671Z" fill="#B43C00"/>
<path d="M77.8697 29.7122H72.962V14.2309H77.8697V29.7122Z" fill="#B43C00"/>
<path d="M94.2209 29.7122H80.7033V25.6549L87.907 18.5472H80.5311V14.2309H94.0487V18.3746L86.759 25.3959H94.2209V29.7122Z" fill="#B43C00"/>
<path d="M103.189 30C98.6258 30 95.1244 26.403 95.1244 21.9715C95.1244 17.5401 98.6258 13.9431 103.189 13.9431C107.752 13.9431 111.254 17.5401 111.254 21.9715C111.254 26.403 107.752 30 103.189 30ZM103.189 25.5973C104.71 25.5973 106.145 24.3887 106.145 21.9715C106.145 19.5544 104.71 18.3746 103.189 18.3746C101.668 18.3746 100.233 19.5544 100.233 21.9715C100.233 24.3887 101.668 25.5973 103.189 25.5973Z" fill="#B43C00"/>
<path d="M118.615 21.5687V29.7122H113.708V14.2309H118.213V16.1013C119.419 14.7488 120.854 13.9431 122.805 13.9431C125.848 13.9431 128 15.9862 128 19.7558V29.7122H123.092V21.396C123.092 19.4393 122.404 18.3746 120.911 18.3746C119.706 18.3746 118.615 19.2378 118.615 21.5687Z" fill="#B43C00"/>
<path d="M74.8001 0.0373396C71.5502 0.401922 69.2105 3.33916 69.5741 6.59711C69.9377 9.85535 72.867 12.2018 76.1168 11.8372C79.3664 11.4727 81.7064 8.53543 81.3428 5.27689C80.9792 2.01868 78.0497 -0.327211 74.8001 0.0373396ZM78.0996 3.6282L76.9618 4.97897L78.1322 8.14696L77.7045 8.68371L75.8834 6.33775L75.844 6.30643L74.4275 7.9882C74.4197 7.99826 74.4103 8.00623 74.4021 8.01581L74.4807 9.18112L72.5193 7.6103L73.6699 7.42991C73.6773 7.41956 73.6831 7.40885 73.6911 7.3987L75.0139 5.64186L74.9997 5.6305L72.2906 4.34787L72.7182 3.81139L76.0453 4.27221L77.1205 2.84433C77.2242 2.71415 77.3752 2.63059 77.5403 2.61204C77.7054 2.59349 77.8711 2.64146 78.001 2.74541C78.1308 2.84936 78.2141 3.00076 78.2326 3.16632C78.2511 3.33187 78.2033 3.49802 78.0996 3.6282Z" fill="#593625"/>
<path d="M4.95481 16.0708L7.50611 21.2402C7.50611 21.2402 10.3714 18.5458 13.465 17.0708C16.6568 15.5489 20.0769 15.2465 20.0769 15.2465L17.356 10.2237L12.6317 15.7981L4.95481 16.0708ZM23.1383 12.8711L22.6402 11.8208L22.2964 11.9847L20.3038 7.7833L19.5909 8.98847L21.2489 12.4841L20.9051 12.648L21.4033 13.6984L21.747 13.5345L22.7011 17.3657L25.14 16.2029L22.7782 13.0428L23.1383 12.8711ZM18.1264 9.31459L12.2102 11.2702C12.2102 11.2702 11.376 12.0503 10.9824 12.2782C10.3097 12.6794 9.89668 12.655 9.6001 12.072C9.30352 11.489 9.30374 11.0663 10.1495 10.5222C10.9953 9.97803 11.8755 10.5645 11.8755 10.5645L19.0028 8.45406L20.9435 6.24088L8.64645 7.39536L0 16.2468L12.6317 15.7981L18.1264 9.31459Z" fill="#593625"/>
</svg>
