<svg width="16" height="17" viewBox="0 0 16 17" fill="none" xmlns="http://www.w3.org/2000/svg">
<g clip-path="url(#clip0_476_4460)">
<path d="M13.9995 1.79883C14.2647 1.79883 14.5191 1.90418 14.7066 2.09172C14.8942 2.27926 14.9995 2.53361 14.9995 2.79883V14.7988C14.9995 15.064 14.8942 15.3184 14.7066 15.5059C14.5191 15.6935 14.2647 15.7988 13.9995 15.7988H1.99951C1.7343 15.7988 1.47994 15.6935 1.2924 15.5059C1.10487 15.3184 0.999512 15.064 0.999512 14.7988V2.79883C0.999512 2.53361 1.10487 2.27926 1.2924 2.09172C1.47994 1.90418 1.7343 1.79883 1.99951 1.79883H13.9995ZM1.99951 0.798828C1.46908 0.798828 0.960371 1.00954 0.585298 1.38461C0.210225 1.75969 -0.000488281 2.2684 -0.000488281 2.79883V14.7988C-0.000488281 15.3293 0.210225 15.838 0.585298 16.213C0.960371 16.5881 1.46908 16.7988 1.99951 16.7988H13.9995C14.5299 16.7988 15.0387 16.5881 15.4137 16.213C15.7888 15.838 15.9995 15.3293 15.9995 14.7988V2.79883C15.9995 2.2684 15.7888 1.75969 15.4137 1.38461C15.0387 1.00954 14.5299 0.798828 13.9995 0.798828H1.99951Z" fill="#299D91"/>
<path d="M7.99951 4.79883C8.13212 4.79883 8.2593 4.85151 8.35307 4.94527C8.44683 5.03904 8.49951 5.16622 8.49951 5.29883V8.29883H11.4995C11.6321 8.29883 11.7593 8.35151 11.8531 8.44527C11.9468 8.53904 11.9995 8.66622 11.9995 8.79883C11.9995 8.93144 11.9468 9.05861 11.8531 9.15238C11.7593 9.24615 11.6321 9.29883 11.4995 9.29883H8.49951V12.2988C8.49951 12.4314 8.44683 12.5586 8.35307 12.6524C8.2593 12.7462 8.13212 12.7988 7.99951 12.7988C7.8669 12.7988 7.73973 12.7462 7.64596 12.6524C7.55219 12.5586 7.49951 12.4314 7.49951 12.2988V9.29883H4.49951C4.3669 9.29883 4.23973 9.24615 4.14596 9.15238C4.05219 9.05861 3.99951 8.93144 3.99951 8.79883C3.99951 8.66622 4.05219 8.53904 4.14596 8.44527C4.23973 8.35151 4.3669 8.29883 4.49951 8.29883H7.49951V5.29883C7.49951 5.16622 7.55219 5.03904 7.64596 4.94527C7.73973 4.85151 7.8669 4.79883 7.99951 4.79883Z" fill="#299D91"/>
</g>
<defs>
<clipPath id="clip0_476_4460">
<rect width="16" height="16" fill="white" transform="translate(0 0.799805)"/>
</clipPath>
</defs>
</svg>
