<svg width="22" height="23" viewBox="0 0 22 23" fill="none" xmlns="http://www.w3.org/2000/svg">
<g clip-path="url(#clip0_476_4446)">
<rect width="22" height="22" transform="translate(0 0.799805)" fill="white" fill-opacity="0.01"/>
<path d="M8.9375 15.0498H13.0625C13.1122 15.0498 13.1602 15.0693 13.1953 15.1045C13.2305 15.1397 13.25 15.1876 13.25 15.2373C13.25 15.287 13.2305 15.335 13.1953 15.3701C13.1602 15.4053 13.1122 15.4248 13.0625 15.4248H8.9375C8.91273 15.4248 8.88867 15.4194 8.86621 15.4102L8.80469 15.3701C8.76952 15.335 8.75 15.287 8.75 15.2373C8.75 15.2125 8.75539 15.1885 8.76465 15.166L8.80469 15.1045C8.83985 15.0693 8.88777 15.0498 8.9375 15.0498ZM6.1875 10.9248H15.8125C15.8373 10.9248 15.8613 10.9302 15.8838 10.9395L15.9453 10.9795C15.9805 11.0147 16 11.0626 16 11.1123C16 11.1371 15.9946 11.1611 15.9854 11.1836L15.9453 11.2451C15.9101 11.2803 15.8622 11.2998 15.8125 11.2998H6.1875C6.16273 11.2998 6.13867 11.2944 6.11621 11.2852L6.05469 11.2451C6.01952 11.21 6 11.162 6 11.1123C6 11.0875 6.00538 11.0635 6.01465 11.041L6.05469 10.9795C6.08985 10.9443 6.13777 10.9248 6.1875 10.9248ZM3.4375 6.7998H18.5625C18.5873 6.7998 18.6113 6.80519 18.6338 6.81445L18.6953 6.85449C18.7305 6.88965 18.75 6.93757 18.75 6.9873C18.75 7.01207 18.7446 7.03613 18.7354 7.05859L18.6953 7.12012C18.6601 7.15528 18.6122 7.1748 18.5625 7.1748H3.4375C3.41273 7.1748 3.38867 7.16942 3.36621 7.16016L3.30469 7.12012C3.26952 7.08495 3.25 7.03703 3.25 6.9873C3.25 6.93758 3.26952 6.88966 3.30469 6.85449C3.32234 6.83684 3.34357 6.82379 3.36621 6.81445L3.4375 6.7998Z" fill="white" stroke="#F5F5F5"/>
</g>
<defs>
<clipPath id="clip0_476_4446">
<rect width="22" height="22" fill="white" transform="translate(0 0.799805)"/>
</clipPath>
</defs>
</svg>
