<svg width="21" height="20" viewBox="0 0 21 20" fill="none" xmlns="http://www.w3.org/2000/svg">
<path d="M10.5634 14.901L14.5036 17.3974C15.0073 17.7165 15.6326 17.2419 15.4832 16.654L14.3448 12.1756C14.3127 12.0509 14.3165 11.9197 14.3557 11.797C14.3949 11.6743 14.468 11.5652 14.5664 11.4822L18.0998 8.54132C18.5641 8.1549 18.3245 7.38439 17.728 7.34568L13.1136 7.0462C12.9893 7.03732 12.8701 6.99332 12.7699 6.91931C12.6696 6.84531 12.5925 6.74435 12.5474 6.62819L10.8264 2.29436C10.7796 2.17106 10.6964 2.06492 10.5879 1.99002C10.4794 1.91511 10.3506 1.875 10.2188 1.875C10.0869 1.875 9.95813 1.91511 9.8496 1.99002C9.74107 2.06492 9.65789 2.17106 9.61111 2.29436L7.89015 6.62819C7.84506 6.74435 7.76789 6.84531 7.66765 6.91931C7.5674 6.99332 7.44819 7.03732 7.3239 7.0462L2.70953 7.34568C2.11304 7.38439 1.87341 8.1549 2.33769 8.54132L5.87107 11.4822C5.96954 11.5652 6.04258 11.6743 6.0818 11.797C6.12101 11.9197 6.12481 12.0509 6.09275 12.1756L5.03699 16.3288C4.85764 17.0343 5.60804 17.6038 6.21244 17.2209L9.87414 14.901C9.97712 14.8354 10.0967 14.8006 10.2188 14.8006C10.3408 14.8006 10.4604 14.8354 10.5634 14.901V14.901Z" stroke="#FD8E1F" stroke-linecap="round" stroke-linejoin="round"/>
<mask id="mask0_84_5177" style="mask-type:alpha" maskUnits="userSpaceOnUse" x="0" y="0" width="11" height="21">
<path d="M10.2188 0.5H0.21875V20.5H10.2188V0.5Z" fill="white"/>
</mask>
<g mask="url(#mask0_84_5177)">
<path d="M10.5634 14.901L14.5036 17.3974C15.0073 17.7165 15.6326 17.2419 15.4832 16.654L14.3448 12.1756C14.3127 12.0509 14.3165 11.9197 14.3557 11.797C14.3949 11.6743 14.468 11.5652 14.5664 11.4822L18.0998 8.54132C18.5641 8.1549 18.3245 7.38439 17.728 7.34567L13.1136 7.0462C12.9893 7.03732 12.8701 6.99332 12.7699 6.91931C12.6696 6.84531 12.5925 6.74435 12.5474 6.62819L10.8264 2.29436C10.7796 2.17106 10.6964 2.06492 10.5879 1.99002C10.4794 1.91511 10.3506 1.875 10.2188 1.875C10.0869 1.875 9.95813 1.91511 9.8496 1.99002C9.74107 2.06492 9.65789 2.17106 9.61111 2.29436L7.89015 6.62819C7.84506 6.74435 7.76789 6.84531 7.66765 6.91931C7.5674 6.99332 7.44819 7.03732 7.3239 7.0462L2.70953 7.34567C2.11304 7.38439 1.87341 8.1549 2.33769 8.54132L5.87107 11.4822C5.96954 11.5652 6.04258 11.6743 6.0818 11.797C6.12101 11.9197 6.12481 12.0509 6.09275 12.1756L5.03699 16.3288C4.85764 17.0343 5.60804 17.6038 6.21244 17.2209L9.87414 14.901C9.97712 14.8354 10.0967 14.8006 10.2188 14.8006C10.3408 14.8006 10.4604 14.8354 10.5634 14.901Z" fill="#FD8E1F"/>
</g>
</svg>
