<svg width="62" height="54" viewBox="0 0 62 54" fill="none" xmlns="http://www.w3.org/2000/svg">
<path d="M56.5 0.687523H39.5C37.9078 0.684363 36.3318 1.00806 34.8697 1.63859C33.4077 2.26911 32.0906 3.19303 31 4.35315C29.9094 3.19303 28.5923 2.26911 27.1303 1.63859C25.6682 1.00806 24.0922 0.684363 22.5 0.687523H5.5C4.09319 0.694505 2.74599 1.25645 1.75121 2.25123C0.756432 3.24601 0.194482 4.59321 0.1875 6.00002V40C0.194482 41.4068 0.756432 42.754 1.75121 43.7488C2.74599 44.7436 4.09319 45.3055 5.5 45.3125H22.5C23.9068 45.3195 25.254 45.8815 26.2488 46.8762C27.2436 47.871 27.8055 49.2182 27.8125 50.625C27.8125 51.4704 28.1483 52.2812 28.7461 52.8789C29.3439 53.4767 30.1546 53.8125 31 53.8125C31.8454 53.8125 32.6561 53.4767 33.2539 52.8789C33.8517 52.2812 34.1875 51.4704 34.1875 50.625C34.1945 49.2182 34.7564 47.871 35.7512 46.8762C36.746 45.8815 38.0932 45.3195 39.5 45.3125H56.5C57.9068 45.3055 59.254 44.7436 60.2488 43.7488C61.2436 42.754 61.8055 41.4068 61.8125 40V6.00002C61.8055 4.59321 61.2436 3.24601 60.2488 2.25123C59.254 1.25645 57.9068 0.694505 56.5 0.687523ZM22.5 38.9375H6.5625V7.06252H22.5C23.9068 7.0695 25.254 7.63146 26.2488 8.62623C27.2436 9.62101 27.8055 10.9682 27.8125 12.375V40.2125C26.1694 39.368 24.3474 38.9307 22.5 38.9375ZM55.4375 38.9375H39.5C37.6526 38.9307 35.8306 39.368 34.1875 40.2125V12.375C34.1945 10.9682 34.7564 9.62101 35.7512 8.62623C36.746 7.63146 38.0932 7.0695 39.5 7.06252H55.4375V38.9375Z" fill="#FF7500"/>
</svg>
