<svg width="48" height="64" viewBox="0 0 48 64" fill="none" xmlns="http://www.w3.org/2000/svg">
<path d="M38.875 23.5C38.875 26.442 38.0026 29.3179 36.3681 31.7641C34.7336 34.2103 32.4105 36.1169 29.6924 37.2427C26.9744 38.3686 23.9835 38.6631 21.098 38.0892C18.2126 37.5152 15.5621 36.0985 13.4818 34.0182C11.4015 31.9379 9.98477 29.2874 9.41082 26.402C8.83686 23.5165 9.13144 20.5256 10.2573 17.8076C11.3831 15.0895 13.2897 12.7664 15.7359 11.1319C18.1821 9.4974 21.058 8.62499 24 8.62499C27.9451 8.62499 31.7286 10.1922 34.5182 12.9818C37.3078 15.7714 38.875 19.5549 38.875 23.5ZM47.375 23.5C47.3755 26.9432 46.6135 30.3438 45.1439 33.4576C43.6743 36.5714 41.5334 39.3211 38.875 41.5094V61.75C38.875 62.3136 38.6511 62.8541 38.2526 63.2526C37.8541 63.6511 37.3136 63.875 36.75 63.875C36.4203 63.868 36.0953 63.7958 35.7937 63.6625L24 57.7391L12.2062 63.6625C11.8806 63.8233 11.5192 63.898 11.1565 63.8794C10.7937 63.8608 10.4419 63.7495 10.1344 63.5562C9.8244 63.368 9.56848 63.1027 9.39158 62.7862C9.21468 62.4696 9.12283 62.1126 9.125 61.75V41.5094C6.08607 39.0024 3.73006 35.768 2.27584 32.1067C0.821617 28.4453 0.316357 24.4759 0.806996 20.567C1.29764 16.6581 2.76826 12.9366 5.08224 9.7483C7.39623 6.55996 10.4785 4.00818 14.0428 2.33001C17.607 0.65185 21.5376 -0.0982553 25.4693 0.14938C29.4011 0.397015 33.2065 1.63436 36.532 3.74646C39.8575 5.85857 42.5953 8.77691 44.4909 12.2304C46.3866 15.6839 47.3787 19.5604 47.375 23.5ZM43.125 23.5C43.125 19.7174 42.0033 16.0198 39.9019 12.8747C37.8004 9.72962 34.8135 7.27832 31.3188 5.8308C27.8242 4.38327 23.9788 4.00453 20.2689 4.74248C16.559 5.48042 13.1513 7.3019 10.4766 9.97658C7.8019 12.6513 5.98042 16.059 5.24248 19.7689C4.50454 23.4788 4.88327 27.3242 6.3308 30.8188C7.77833 34.3134 10.2296 37.3004 13.3747 39.4019C16.5198 41.5033 20.2174 42.625 24 42.625C29.0701 42.618 33.9305 40.6008 37.5156 37.0156C41.1008 33.4305 43.118 28.5701 43.125 23.5Z" fill="#FF7500"/>
</svg>
