<svg width="68" height="68" viewBox="0 0 68 68" fill="none" xmlns="http://www.w3.org/2000/svg">
<path d="M26.9166 8.5H41.0833C42.2105 8.5 43.2915 8.94777 44.0885 9.7448C44.8855 10.5418 45.3333 11.6228 45.3333 12.75C45.3333 15.3801 44.2885 17.9024 42.4288 19.7621C40.569 21.6219 38.0467 22.6667 35.4166 22.6667H32.5833C29.9532 22.6667 27.4309 21.6219 25.5712 19.7621C23.7114 17.9024 22.6666 15.3801 22.6666 12.75C22.6666 11.6228 23.1144 10.5418 23.9114 9.7448C24.7085 8.94777 25.7895 8.5 26.9166 8.5Z" stroke="#FF7500" stroke-width="5.66667" stroke-linecap="round" stroke-linejoin="round"/>
<path d="M11.3333 48.167V45.3337C11.3333 39.3221 13.7214 33.5567 17.9722 29.3059C22.2231 25.0551 27.9884 22.667 34 22.667C40.0116 22.667 45.7769 25.0551 50.0277 29.3059C54.2786 33.5567 56.6666 39.3221 56.6666 45.3337V48.167C56.6666 51.1728 55.4726 54.0555 53.3472 56.1809C51.2218 58.3063 48.3391 59.5003 45.3333 59.5003H22.6666C19.6609 59.5003 16.7782 58.3063 14.6528 56.1809C12.5274 54.0555 11.3333 51.1728 11.3333 48.167Z" stroke="#FF7500" stroke-width="5.66667" stroke-linecap="round" stroke-linejoin="round"/>
<path d="M34.4457 39.3459C31.4443 38.5658 30.4791 37.7593 30.4791 36.5032C30.4791 35.0619 31.8145 34.0571 34.0491 34.0571C36.4026 34.0571 37.2753 35.1809 37.3546 36.8337H40.2767C40.1842 34.5595 38.7958 32.4704 36.0324 31.7961V28.9004H32.0657V31.7564C29.5006 32.3117 27.438 33.9777 27.438 36.5296C27.438 39.5839 29.9634 41.1045 33.6524 41.9904C36.958 42.7837 37.6191 43.9473 37.6191 45.1769C37.6191 46.0893 36.9712 47.5437 34.0491 47.5437C31.3253 47.5437 30.2543 46.3273 30.1088 44.7671H27.2C27.3586 47.6627 29.5271 49.2891 32.0657 49.8312V52.7004H36.0324V49.8576C38.6107 49.3684 40.6602 47.8743 40.6602 45.1637C40.6602 41.4086 37.4472 40.1261 34.4457 39.3459Z" fill="#FF7500"/>
</svg>
