<svg width="224" height="224" viewBox="0 0 224 224" fill="none" xmlns="http://www.w3.org/2000/svg">
<g id="38893133_8669063">
<g id="OBJECTS">
<path id="Vector" d="M21.9018 204.38H195.929C195.622 170.468 195.01 136.556 195.01 102.642C195.01 87.7444 194.056 79.2906 194.056 60.3935C194.056 41.6228 186.341 25.0656 164.814 22.2266C129.264 17.5383 84.4615 19.3245 55.2532 21.3956C34.1533 22.8919 22.5882 37.0066 21.6402 61.4383C20.2433 97.4239 21.1586 166.565 21.9018 204.38Z" fill="#F7EDE6"/>
<g id="Group">
<g id="Group_2">
<path id="Vector_2" d="M196.124 138.654C191.892 139.67 189.94 149.259 189.104 161.176C188.268 173.093 188.895 186.056 188.895 186.056" stroke="#E6D4BE" strokeWidth="1.5804" strokeMiterlimit="10"/>
<path id="Vector_3" d="M191.195 183.965C192.658 168.912 195.245 144.733 193.913 132.742C193.076 125.215 187.388 121.988 183.646 126.006" stroke="#E6D4BE" strokeWidth="1.5804" strokeMiterlimit="10"/>
<path id="Vector_4" d="M194.607 113.218C191.403 110.998 186.804 117.898 185.549 136.505C184.295 155.113 187.849 181.874 187.849 181.874" stroke="#E6D4BE" strokeWidth="1.5804" strokeMiterlimit="10"/>
<path id="Vector_5" d="M194.607 113.218C188.986 111.812 185.191 118.558 189.829 123.617C194.467 128.676 202.336 133.735 202.336 133.735C202.336 133.735 205.569 126.99 205.99 119.963C206.412 112.937 202.725 110.07 198.682 110.407C195.31 110.688 194.607 113.218 194.607 113.218Z" fill="#E6D4BE"/>
<path id="Vector_6" d="M176.479 145.681C181.257 139.778 182.241 140.621 186.878 137.108C191.516 133.595 191.797 130.222 189.689 127.552C187.581 124.882 183.647 126.006 183.647 126.006C183.647 126.006 183.366 123.336 179.149 123.336C174.934 123.336 171.701 128.254 172.545 135.702C173.388 143.15 176.479 145.681 176.479 145.681Z" fill="#E6D4BE"/>
<path id="Vector_7" d="M196.124 138.654C192.896 137.389 182.566 137.389 186.279 146.523C189.991 155.658 196.392 157.97 199.089 163.363C200.583 166.352 200.474 170.142 200.474 170.142C200.474 170.142 205.593 167.263 210.488 156.923C214.624 148.189 213.011 138.169 206.131 135.703C197.899 132.752 196.124 138.654 196.124 138.654Z" fill="#E6D4BE"/>
</g>
<path id="Vector_8" d="M199.84 204.504H181.964L179.492 173.228H202.312L199.84 204.504Z" fill="#E6D4BE"/>
</g>
<g id="Group_3">
<path id="Vector_9" d="M67.2171 57.7288C59.9187 57.7288 54.002 51.8121 54.002 44.5137C54.002 37.2153 59.9187 31.2986 67.2171 31.2986C74.5154 31.2986 80.4322 37.2153 80.4322 44.5137C80.4322 51.8121 74.5159 57.7288 67.2171 57.7288Z" fill="#E6D4BE"/>
<path id="Vector_10" d="M67.2167 45.9208C67.9939 45.9208 68.6239 45.2908 68.6239 44.5136C68.6239 43.7365 67.9939 43.1064 67.2167 43.1064C66.4396 43.1064 65.8096 43.7365 65.8096 44.5136C65.8096 45.2908 66.4396 45.9208 67.2167 45.9208Z" fill="#F7EDE6"/>
<path id="Vector_11" d="M67.2421 36.4761C66.8904 36.4761 66.6055 36.761 66.6055 37.1127V44.9339H67.8782V37.1122C67.8787 36.761 67.5938 36.4761 67.2421 36.4761Z" fill="#F7EDE6"/>
<path id="Vector_12" d="M75.6345 38.5419L67.2686 43.6594L67.9186 44.7207L76.2828 39.6C76.5551 39.4334 76.6564 39.0871 76.5166 38.7995C76.3562 38.4706 75.9472 38.351 75.6345 38.5419Z" fill="#F7EDE6"/>
</g>
<g id="Group_4">
<path id="Vector_13" d="M139.377 50.1465H112.266V54.4854H139.377V50.1465Z" fill="white"/>
<path id="Vector_14" d="M139.377 44.5051H112.266V48.844H139.377V44.5051Z" fill="white"/>
<path id="Vector_15" d="M154.017 54.9831L157.703 33.5869L154.22 32.9867L150.533 54.3829L154.017 54.9831Z" fill="#E6D4BE"/>
<path id="Vector_16" d="M149.61 54.9831L153.297 33.5869L149.813 32.9867L146.127 54.3829L149.61 54.9831Z" fill="#E6D4BE"/>
<path id="Vector_17" d="M145.204 54.9828L148.891 33.5867L145.407 32.9865L141.721 54.3826L145.204 54.9828Z" fill="#E6D4BE"/>
<path id="Vector_18" d="M156.655 54.9813V39.4343H157.312L158.03 54.9813H156.655Z" fill="#E6D4BE"/>
<path id="Vector_19" d="M161.283 54.0645H106.738V57.1637H161.283V54.0645Z" fill="#E6D4BE"/>
</g>
<g id="Group_5">
<path id="Vector_20" d="M121.962 137.98H124.241L117.313 204.268H115.033L121.962 137.98Z" fill="#9C745B"/>
<g id="Group_6">
<g id="Group_7">
<g id="Group_8">
<path id="Vector_21" d="M158.088 164.514H155.156V195.881H158.088V164.514Z" fill="#6C273E"/>
<path id="Vector_22" d="M156.856 185.28H156.389C155.216 185.28 154.266 186.231 154.266 187.403V196.94C154.266 197.497 154.718 197.949 155.275 197.949H157.97C158.527 197.949 158.979 197.497 158.979 196.94V187.403C158.979 186.231 158.028 185.28 156.856 185.28Z" fill="#6C273E"/>
<g id="Group_9">
<path id="Vector_23" d="M156.622 196.885C156.277 196.885 155.998 197.164 155.998 197.509V201.534C155.998 201.878 156.277 202.157 156.622 202.157C156.966 202.157 157.245 201.878 157.245 201.534V197.509C157.245 197.164 156.966 196.885 156.622 196.885Z" fill="#6C273E"/>
</g>
<path id="Vector_24" d="M160.516 167.621H152.729C151.65 167.621 150.676 166.977 150.254 165.985L149.212 163.534C148.457 161.76 149.759 159.792 151.686 159.792H161.559C163.487 159.792 164.788 161.76 164.034 163.534L162.991 165.985C162.568 166.977 161.594 167.621 160.516 167.621Z" fill="#6C273E"/>
<path id="Vector_25" d="M171.265 202.775C171.265 203.939 170.321 204.883 169.157 204.883C167.993 204.883 167.049 203.939 167.049 202.775C167.049 201.61 167.993 200.667 169.157 200.667C170.321 200.667 171.265 201.61 171.265 202.775Z" fill="#6C273E"/>
<path id="Vector_26" d="M158.73 202.775C158.73 203.939 157.786 204.883 156.622 204.883C155.458 204.883 154.514 203.939 154.514 202.775C154.514 201.61 155.458 200.667 156.622 200.667C157.786 200.667 158.73 201.61 158.73 202.775Z" fill="#6C273E"/>
<path id="Vector_27" d="M141.979 202.775C141.979 203.939 142.922 204.883 144.087 204.883C145.251 204.883 146.195 203.939 146.195 202.775C146.195 201.61 145.251 200.667 144.087 200.667C142.922 200.667 141.979 201.61 141.979 202.775Z" fill="#6C273E"/>
<g id="Group_10">
<path id="Vector_28" d="M144.889 203.663L143.644 203.1C145.932 198.038 150.899 194.894 156.606 194.894C156.607 194.894 156.608 194.894 156.609 194.894C162.314 194.895 167.279 198.039 169.566 203.1L168.32 203.663C166.257 199.098 161.77 196.261 156.608 196.26H156.606C151.443 196.26 146.954 199.097 144.889 203.663Z" fill="#6C273E"/>
</g>
</g>
</g>
<g id="Group_11">
<path id="Vector_29" d="M187.215 101.707C184.899 97.2689 177.085 96.7864 177.085 96.7864L158.098 101.534C158.098 101.534 150.179 115.356 148.647 122.513C147.486 127.941 133.863 148.542 128.371 157.866C126.622 160.835 128.007 161.065 128.979 161.516C139.366 166.333 170.858 161.516 170.858 161.516C174.799 161.516 178.79 157.574 179.616 153.72C180.548 149.372 181.452 142.628 181.473 132.782C181.518 112.317 191.97 110.821 187.215 101.707Z" fill="#6C273E"/>
<path id="Vector_30" d="M173.554 155.459C175.614 154.746 177.132 152.985 177.49 150.834C178.201 146.565 178.784 140.67 178.801 132.783C178.845 112.317 186.871 107.563 184.135 101.03C181.016 93.5809 160.521 96.6116 153.761 101.03C148.123 104.715 147.506 115.356 145.975 122.513C144.684 128.55 142.96 150.364 142.451 157.046C153.062 157.718 163.608 158.901 173.554 155.459Z" fill="#5C2135"/>
</g>
</g>
<path id="Vector_31" d="M148.246 188.108L150 196.9C150 196.9 148.827 198.849 147.191 199.624C145.748 200.307 145.002 200.817 143.482 200.901C142.364 200.963 142.112 204.205 142.112 204.205H151.806L160.164 200.709C160.164 200.709 160.086 198.734 159.39 196.531C158.694 194.328 156.553 186.526 156.553 186.526L148.246 188.108Z" fill="#272C34"/>
<g id="Group_12">
<path id="Vector_32" d="M123.442 188.204L123.21 196.9C123.21 196.9 121.208 198.784 118.013 200.217C115.958 201.138 111.313 204.205 113.81 204.205H124.486L133.878 204.249C133.878 204.249 133.994 200.843 133.299 198.639C132.603 196.436 131.328 194.697 131.211 191.566C131.095 188.436 130.979 186.696 130.979 186.696L123.442 188.204Z" fill="#272C34"/>
<path id="Vector_33" d="M157.226 144.832L153.91 136.957H142.719C142.719 136.957 135.466 139.444 127.384 141.724C119.303 144.003 114.414 144.832 112.548 149.805C110.683 154.779 113.792 164.726 116.072 171.565C118.351 178.404 122.703 191.045 122.703 191.045C122.703 191.045 128.006 192.495 131.322 191.252C131.322 191.252 129.887 165.716 128.565 159.131C128.565 159.131 139.611 158.924 144.17 158.51C148.729 158.095 155.568 148.563 157.226 144.832Z" fill="#323945"/>
</g>
<path id="Vector_34" d="M149.397 142.138C147.118 143.175 135.235 148.829 133.026 150.842C130.402 153.233 130.954 157.059 132.197 159.338C133.44 161.618 138.414 171.565 141.315 177.575C144.217 183.584 147.947 191.873 147.947 191.873C147.947 191.873 151.47 192.702 157.272 189.801C157.272 189.801 154.759 177.563 153.308 170.932C151.858 164.3 149.692 158.015 149.692 158.015C149.692 158.015 160.381 158.717 165.355 157.68C170.328 156.644 172.4 155.401 172.193 148.355C171.986 141.309 170.535 136.75 170.535 136.75L150.226 136.957L149.397 142.138Z" fill="#323945"/>
<path id="Vector_35" d="M150.226 136.958L149.397 142.138C147.118 143.174 135.235 148.829 133.026 150.842C130.402 153.233 130.954 157.059 132.197 159.338C133.44 161.618 138.414 171.565 141.315 177.575" stroke="#272C34" strokeMiterlimit="10"/>
<path id="Vector_36" d="M147.703 154.294C147.703 154.294 150.459 159.231 152.181 166.924" stroke="#272C34" strokeMiterlimit="10"/>
<g id="Group_13">
<g id="Group_14">
<path id="Vector_37" d="M155.389 79.7954C155.159 80.8325 155.836 88.6197 156.743 90.2562C157.126 90.9475 162.658 92.6561 162.658 92.6561C162.658 92.6561 158.195 106.763 155.29 107.273C152.387 107.782 143.668 94.5816 143.668 94.5816C143.668 94.5816 147.747 92.9823 147.984 92.4899C148.63 91.15 147.718 82.8225 147.718 82.8225L155.389 79.7954Z" fill="#E8B3A0"/>
<path id="Vector_38" d="M147.985 92.49C147.939 92.5859 147.744 92.7243 147.466 92.8842C148.717 92.9998 150.04 92.8797 151.477 92.4161C153.803 91.6648 155.119 90.1304 156.16 88.2792C155.573 85.3641 155.213 80.5924 155.39 79.7959L147.719 82.8235C147.719 82.8226 148.631 91.15 147.985 92.49Z" fill="#D49684"/>
<path id="Vector_39" d="M154.696 88.6913C153.721 89.534 152.005 91.5281 148.853 92.067C147.648 92.2731 145.873 91.8448 145.173 91.2015C143.844 89.978 141.933 86.3183 142.146 84.2754C142.259 83.1841 142.126 81.7317 142.337 80.406C142.521 79.2533 142.447 77.7409 142.623 77.0169C143.209 74.6085 144.552 72.0822 146.595 71.6669C152.156 70.5348 159.482 76.0116 159.214 77.7171C158.961 79.3246 158.006 82.0708 157.581 84.1639C157.261 85.7399 156.343 87.268 154.696 88.6913Z" fill="#E7B2A1"/>
<path id="Vector_40" d="M147.827 76.139L149.763 76.2429L152.366 73.6607L151.905 76.6332L152.835 76.7926C152.835 76.7926 153.084 75.1794 154.285 73.7901L154.15 76.9244C154.15 76.9244 155.561 77.9731 156.709 78.3902C157.858 78.8073 158.118 79.0757 158.118 79.0757L156.445 72.8592L152.728 71.0354L147.921 71.4614L145.896 74.2229L147.827 76.139Z" fill="#D49684"/>
<g id="Group_15">
<path id="Vector_41" d="M142.943 76.939C143.181 75.9028 144.777 73.101 144.777 73.101L144.057 72.7036C142.9 72.0661 142.656 73.6565 141.856 74.9557L142.567 78.9389C142.936 77.9434 142.829 77.4349 142.943 76.939Z" fill="#2A2D33"/>
<path id="Vector_42" d="M155.654 74.7712C156.186 76.1107 157.036 76.087 157.956 77.0327C158.875 77.9789 158.273 83.6461 158.273 83.6461C158.273 83.6461 159.771 82.3567 160.552 80.4218C160.766 79.8923 161.628 78.6209 161.904 77.1577C162.469 74.157 161.823 73.2682 160.885 72.58C159.905 71.8606 158.584 72.124 158.584 72.124L155.654 74.7712Z" fill="#2A2D33"/>
</g>
<path id="Vector_43" d="M157.912 81.6748C158.326 81.2887 159.417 80.5127 159.871 81.0669C160.325 81.6211 160.046 84.4054 158.987 85.568C157.994 86.657 156.687 86.2767 156.687 86.2767L157.263 82.578L157.912 81.6748Z" fill="#E7B2A1"/>
<path id="Vector_44" d="M157.296 75.657C157.296 75.657 156.678 78.3943 156.993 79.2607C157.572 80.8547 157.146 84.0888 157.146 84.0888L158.482 81.2534L159.584 78.8467L157.296 75.657Z" fill="#2A2D33"/>
<path id="Vector_45" d="M158.23 82.401C158.619 81.6618 159.419 81.6251 159.474 82.1591C159.528 82.6931 159.239 82.8096 159.239 82.8096C159.239 82.8096 158.805 82.8347 158.51 83.2805C157.891 84.2159 157.855 85.3399 157.855 85.3399C157.855 85.3399 157.287 84.193 158.23 82.401Z" fill="#D49684"/>
<path id="Vector_46" d="M153.671 73.1549C154.427 74.0222 153.892 76.5261 153.503 76.9382C153.503 76.9382 156.897 78.2294 158.13 77.6747C159.242 77.1752 159.643 75.6032 159.643 75.6032L158.421 72.9707L155.298 72.0452L153.671 73.1549Z" fill="#2A2D33"/>
<path id="Vector_47" d="M158.801 70.1519C158.455 69.5856 156.54 67.6704 152.128 67.6525C148.914 67.6395 146.343 68.6206 145.18 69.5327C143.146 71.1276 142.397 72.9362 141.856 74.9553C141.856 74.9553 143.213 75.4889 143.215 75.4871C143.277 75.4266 144.441 76.0211 147.826 76.1385C148.485 75.1247 149.992 73.9841 149.992 73.9841C149.407 74.7918 149.121 75.5848 148.981 76.2097C150.111 76.337 151.904 76.6322 151.904 76.6322C152.397 75.1094 154.15 73.6019 154.284 73.7887L158.318 74.1028L159.436 73.3201C159.436 73.3201 159.71 71.6383 158.801 70.1519Z" fill="#2A2D33"/>
<g id="Group_16">
<path id="Vector_48" d="M149.305 78.5796C149.305 78.5796 149.446 78.0483 149.927 77.7656C149.927 77.7656 152.073 77.8189 153.514 79.6266C153.514 79.6266 153.14 79.5899 153 79.5509C152.642 79.4519 150.747 78.4309 149.305 78.5796Z" fill="#2A2D33"/>
<path id="Vector_49" d="M146.607 78.3193C146.607 78.3193 146.769 77.744 146.522 77.3086C146.522 77.3086 145.426 76.9121 143.386 77.813C143.386 77.813 143.447 78.0782 143.826 78.0393C144.205 77.9998 145.731 77.5921 146.607 78.3193Z" fill="#2A2D33"/>
<path id="Vector_50" d="M147.747 81.0664C147.448 81.3926 147.171 81.7362 146.898 82.0825C146.623 82.427 146.364 82.7831 146.106 83.1398L145.916 83.4099L145.822 83.5452C145.791 83.603 145.76 83.6621 145.732 83.7213C145.719 83.7876 145.701 83.8557 145.7 83.9224C145.71 83.9878 145.707 84.0608 145.739 84.1159C145.783 84.2378 145.863 84.3305 145.949 84.4027C146.298 84.6903 146.496 84.7709 146.917 84.8381C146.917 84.8381 147.189 84.8027 147.013 84.6965C146.835 84.598 146.227 84.3924 146.1 84.2512C145.974 84.1088 145.905 83.9488 145.972 83.7965C145.995 83.7589 146.015 83.7208 146.035 83.6818L146.132 83.5488L146.325 83.2827C146.577 82.9243 146.829 82.5654 147.064 82.1949C147.302 81.8262 147.536 81.4548 147.747 81.0664Z" fill="#D49684"/>
</g>
<path id="Vector_51" d="M171.879 121.578C172.241 119.342 168.659 94.8948 168.288 94.575C167.603 93.9845 162.804 92.4689 159.892 91.5854C158.367 94.7134 156.167 96.6752 152.475 96.8324C150.174 96.9305 147.06 95.7899 145.641 93.748C140.894 95.1049 139.573 95.8204 139.573 95.8204C139.573 95.8204 137.975 100.738 138.559 101.705C139.142 102.677 139.514 115.569 139.355 122.248C139.28 125.406 137.823 134.724 137.534 138.922C142.586 141.836 152.554 140.96 153.749 141.103C155.11 141.266 161.209 141.531 165.018 142.658C169.484 143.979 171.642 146.159 171.879 145.906C172.814 144.906 171.302 125.159 171.879 121.578Z" fill="#C0794F"/>
<path id="Vector_52" d="M161.699 92.1497C160.158 91.72 159.296 91.3894 159.296 91.3894C158.106 94.421 154.914 96.872 151.085 96.5687C146.913 96.2381 146.294 93.3472 146.294 93.3472C145.628 93.5967 144.842 93.8601 144.179 94.1984C144.68 95.3188 146.289 96.8026 147.368 97.3948C148.552 98.0453 150.955 98.4821 152.324 98.3863C154.678 98.221 158.808 97.9315 161.699 92.1497Z" fill="#FFD7C3"/>
<path id="Vector_53" d="M150.863 81.3518C150.756 81.8607 150.411 82.2191 150.093 82.1524C149.775 82.0856 149.604 81.6188 149.71 81.1094C149.817 80.6005 150.162 80.2417 150.48 80.3089C150.799 80.3756 150.97 80.8424 150.863 81.3518Z" fill="#2A2D33"/>
<path id="Vector_54" d="M145.7 80.2909C145.593 80.7999 145.248 81.1587 144.93 81.0915C144.612 81.0248 144.441 80.5579 144.547 80.0486C144.654 79.5396 144.999 79.1812 145.317 79.248C145.636 79.3152 145.807 79.782 145.7 80.2909Z" fill="#2A2D33"/>
</g>
<g id="Group_17">
<path id="Vector_55" d="M146.23 127.937C145.329 127.724 142.936 127.863 141.527 128.008C140.117 128.151 139.611 128.131 138.972 128.193C138.333 128.254 138.163 128.683 138.686 128.954C139.209 129.225 139.918 129.612 141.879 129.386C143.839 129.159 146.46 129.118 146.46 129.118C146.46 129.118 146.712 128.051 146.23 127.937Z" fill="#E7B2A1"/>
<path id="Vector_56" d="M139.742 128.691C140.81 128.486 141.913 128.292 143.007 128.319C144.198 128.349 145.28 128.617 146.207 129.123C145.505 129.14 143.473 129.201 141.878 129.385C139.917 129.611 139.208 129.224 138.685 128.953C138.608 128.913 138.55 128.869 138.502 128.823C138.893 128.815 139.289 128.779 139.742 128.691Z" fill="#D38576"/>
<g id="Group_18">
<path id="Vector_57" d="M136.68 133.545C136.68 133.545 136.628 133.527 136.56 133.487L136.68 133.545Z" fill="#E7B2A1"/>
<path id="Vector_58" d="M136.06 131.991C136.098 131.716 137.071 130.87 137.708 130.381C138.572 129.717 139.326 129.365 140.44 129.019C141.445 128.707 144.372 127.895 145.081 127.869C146.497 127.816 147.722 128.319 148.568 128.502C149.364 128.674 151.076 129.558 152.046 129.558C153.378 129.558 158.975 128.278 158.975 128.278L158.268 132.969C158.268 132.969 155.924 133.322 155.14 133.416C153.049 133.668 151.772 134.516 149.848 134.619C147.923 134.722 147.167 133.932 146.342 133.863C145.517 133.794 144.142 134.035 143.421 134.309C142.699 134.585 141.613 135.263 141.071 135.263C140.528 135.263 140.374 134.61 140.374 134.61C140.374 134.61 139.59 134.816 139.062 135.091C138.535 135.366 137.779 134.919 137.813 134.404C137.813 134.404 137.332 134.851 136.954 134.713C136.576 134.576 136.404 134.163 136.679 133.545C136.679 133.545 137.872 132.446 138.434 132.009C138.996 131.572 139.979 131.006 140.216 130.869C140.454 130.731 141.877 130.394 141.877 130.394C141.877 130.394 140.968 130.487 140.308 130.583C139.89 130.644 139.709 130.743 139.395 130.94C138.731 131.356 138.25 131.678 137.44 132.157C137.021 132.405 135.986 132.54 136.06 131.991Z" fill="#E7B2A1"/>
</g>
</g>
<path id="Vector_59" d="M154.658 128.831C155.897 128.521 157.955 132.056 158.011 134.399C158.011 134.399 171.333 131.765 176.91 129.751C182.487 127.737 183.262 126.033 182.642 123.09C182.022 120.146 177.185 104.598 176.411 102.119C175.637 99.6402 174.432 97.0646 171.334 95.5154C168.235 93.9663 164.982 93.3467 164.982 93.3467C164.982 93.3467 165.137 102.177 165.602 104.965C166.067 107.753 170.559 120.611 170.559 120.611L154.658 128.831Z" fill="#C0794F"/>
<path id="Vector_60" d="M175.14 122.447C175.14 122.447 172.986 120.252 170.559 120.611" stroke="#396958" strokeWidth="1.0761" strokeMiterlimit="10" strokeLinecap="round" strokeLinejoin="round"/>
<path id="Vector_61" d="M139.573 95.8206C137.413 96.9074 136.053 98.2855 134.786 99.6174C130.504 104.118 125.972 111.045 123.672 114.434C120.693 118.825 118.497 121.805 118.497 123.687C118.497 125.569 119.909 129.803 119.909 129.803C119.909 129.803 121.948 127.764 124.3 127.451C126.652 127.137 130.029 128.614 130.029 128.614C130.029 128.614 129.872 124.969 130.029 124.028C130.186 123.087 134.487 118.778 136.526 117.053C138.565 115.328 142.832 112.085 142.832 112.085L139.573 95.8206Z" fill="#C0794F"/>
<g id="Group_19">
<path id="Vector_62" d="M136.295 134.126H129.733L123.173 111.169H128.161L136.295 134.126Z" fill="#B7ACAC"/>
<path id="Vector_63" d="M134.411 134.126H105.471L98.9102 111.169H127.851L134.411 134.126Z" fill="#D1CBCB"/>
<path id="Vector_64" d="M134.355 133.605H105.21V135.317H134.355V133.605Z" fill="#D1CBCB"/>
<path id="Vector_65" d="M149.043 133.605H134.355V135.317H149.043V133.605Z" fill="#B7ACAC"/>
</g>
<path id="Vector_66" d="M145.931 85.9631C146.896 86.4711 149.842 86.1154 150.757 85.4551C150.757 85.4551 149.753 87.1324 148.013 87.0298C146.126 86.9187 145.931 85.9631 145.931 85.9631Z" fill="#2A2D33"/>
<path id="Vector_67" d="M139.493 106.577C139.493 106.577 140.141 118.543 139.592 123.351" stroke="#396958" strokeWidth="1.0761" strokeMiterlimit="10"/>
<path id="Vector_68" d="M165.602 104.966C166.066 107.754 170.559 120.612 170.559 120.612L154.658 128.831C155.897 128.521 157.955 132.056 158.011 134.399C158.011 134.399 171.333 131.765 176.91 129.751" stroke="#396958" strokeWidth="1.0761" strokeMiterlimit="10" strokeLinecap="round" strokeLinejoin="round"/>
</g>
<g id="Group_20">
<path id="Vector_69" d="M118.577 137.98H116.298L123.226 204.268H125.505L118.577 137.98Z" fill="#B48669"/>
<path id="Vector_70" d="M188.585 137.98H186.306L193.234 204.268H195.513L188.585 137.98Z" fill="#9C745B"/>
<path id="Vector_71" d="M77.7804 137.98H80.0598L73.132 204.268H70.8525L77.7804 137.98Z" fill="#B48669"/>
<path id="Vector_72" d="M199.039 135.377H95.5215V138.824H199.039V135.377Z" fill="#9C745B"/>
<path id="Vector_73" d="M113.788 135.377H63.0596V138.824H113.788V135.377Z" fill="#B48669"/>
</g>
</g>
<path id="Vector_74" d="M9.85645 204.615H214.518" stroke="#E8D6CC" strokeWidth="2.1208" strokeMiterlimit="10"/>
<g id="Group_21">
<path id="Vector_75" d="M81.4814 134.248L110.422 134.256L114.013 110.362L86.0367 110.353L81.4814 134.248Z" fill="#F4F4F4"/>
<path id="Vector_76" opacity="0.8" d="M81.4814 134.248L89.3604 134.25L101.698 110.355L94.0814 110.352L81.4814 134.248Z" fill="white"/>
<path id="Vector_77" opacity="0.8" d="M91.7539 134.248L96.1784 134.25L108.516 110.355L104.354 110.352L91.7539 134.248Z" fill="white"/>
<path id="Vector_78" d="M113.684 110.356L108.526 134.253H110.41L114.353 110.965C114.407 110.647 114.162 110.356 113.839 110.356H113.684Z" fill="#B7ACAC"/>
<path id="Vector_79" d="M70.5137 133.733H109.851C110.313 133.733 110.687 134.107 110.687 134.569V134.609C110.687 135.071 110.313 135.445 109.851 135.445H70.5137C70.0518 135.445 69.6777 135.071 69.6777 134.609V134.569C69.6777 134.107 70.0523 133.733 70.5137 133.733Z" fill="#B7ACAC"/>
</g>
<g id="Group_22">
<path id="Vector_80" d="M58.9782 91.9986C59.5006 89.2479 59.5548 86.1804 59.5548 86.1804L62.1353 86.5119L69.2432 87.4209C69.2562 87.9352 69.1509 89.2985 69.0349 90.9494C68.9829 91.6828 68.9283 92.4775 68.8781 93.2772C68.8544 93.7664 68.8969 94.2641 68.8069 94.7359C68.6384 95.6086 68.6859 95.7546 68.5255 96.505C68.1568 98.228 71.1647 102.704 71.1414 103.102C71.1414 103.102 58.3801 95.975 55.8848 95.0741C55.8848 95.0741 58.7045 93.4389 58.9782 91.9986Z" fill="#EBB6A4"/>
<path id="Vector_81" d="M75.4009 83.6809C74.543 84.1616 74.1295 84.8524 74.1555 85.1508C74.177 85.4438 74.2616 88.7146 74.0681 89.3248C73.8746 89.9395 73.3912 90.6043 71.954 90.8265C71.7645 90.8521 71.5795 90.8731 71.3998 90.8946C70.5419 91.0075 69.4989 91.2777 68.9049 93.2067C68.8991 93.23 68.8888 93.2533 68.8785 93.2766C68.5429 94.0181 67.0542 92.4227 65.6995 90.8892C64.85 89.9368 64.0517 89.005 63.6167 88.6766C62.9752 88.1941 62.4967 87.4119 62.1356 86.5114C61.0989 83.9533 61.0371 80.4616 61.0371 80.4616L62.3533 75.0009L69.7812 72.3013L73.3638 73.1623C73.5529 73.2685 74 75.1107 74 75.1107C74 75.1107 74.3745 78.6898 74.3817 79.5862C74.3893 80.4777 74.6899 81.3522 75.0927 81.9149C75.49 82.4825 76.2588 83.2007 75.4009 83.6809Z" fill="#EBB6A4"/>
<path id="Vector_82" d="M67.5729 84.017C68.1992 83.4695 68.266 82.1296 68.1276 81.3895C67.9887 80.6489 67.3919 79.3587 68.4085 78.4484C69.425 77.538 66.9802 74.9678 66.9802 74.9678C66.9802 74.9678 69.7144 73.5956 71.2842 73.3945C72.8544 73.1938 73.9986 75.1103 73.9986 75.1103C73.9986 75.1103 74.9582 74.17 74.9282 73.0388C74.8942 71.7584 73.4332 70.2719 68.9819 69.5936C65.4682 69.0578 60.8211 69.2832 59.2863 69.7585C56.6471 70.5757 55.5244 71.8359 56.0383 74.3863C56.0383 74.3863 54.6302 75.0982 53.8785 76.6792C52.9198 78.6952 53.051 81.9629 55.1463 84.1971C56.7985 85.9586 57.5852 86.9778 58.229 88.0562C58.8813 89.1488 59.1622 90.6761 59.1622 90.6761C59.1622 90.6761 62.0993 90.789 63.7502 89.1099C65.001 87.8371 65.2451 84.663 65.2451 84.663L65.6143 81.243L67.5729 84.017Z" fill="#4E2100"/>
<path id="Vector_83" d="M66.6791 81.5897C65.5712 80.3546 63.7882 80.6476 63.9997 82.4588C64.1753 83.9686 64.8791 84.2446 66.0062 85.4631C66.7714 86.2897 67.4358 85.8623 67.4685 85.4394C67.5613 84.2428 67.3677 82.3567 66.6791 81.5897Z" fill="#E7B2A1"/>
<path id="Vector_84" d="M66.8884 84.2772C67.0044 84.5899 67.0761 84.8171 67.1912 85.0491C67.2871 84.9461 67.1016 84.6863 66.9901 84.141C66.831 83.3633 67.0223 84.1334 66.7665 83.379C66.5112 82.6246 66.3105 82.1671 65.7585 81.9266C65.1694 81.6699 64.6533 82.0919 64.6533 82.0919C65.8643 82.5345 66.5551 83.3781 66.8884 84.2772Z" fill="#D38576"/>
<path id="Vector_85" d="M74.2227 85.6436C74.2227 85.6436 73.3267 85.6933 72.833 85.4917C72.833 85.4917 73.0593 86.8514 74.2057 86.6762L74.2227 85.6436Z" fill="white"/>
<path id="Vector_86" d="M72.9949 77.1278C73.2982 76.9978 73.6306 76.919 73.9267 77.0677C74.0679 77.1385 74.0486 77.5923 74.0486 77.5923C73.7923 77.4015 73.5038 77.3589 73.1705 77.4817C72.7906 77.6219 72.581 77.8867 72.581 77.8867C72.5433 77.5569 72.6912 77.2581 72.9949 77.1278Z" fill="#4E2100"/>
<path id="Vector_87" d="M73.4707 79.4863C73.5016 79.9007 73.6759 80.2255 73.8595 80.2116C74.0432 80.1978 74.1673 79.851 74.1359 79.4366C74.105 79.0222 73.9308 78.6974 73.7471 78.7109C73.5634 78.7247 73.4393 79.0715 73.4707 79.4863Z" fill="#4E2100"/>
<path id="Vector_88" d="M68.9042 93.2069C68.8983 93.2302 68.888 93.2535 68.8777 93.2768C68.8715 93.4018 68.8661 93.525 68.8598 93.65C68.7962 93.4645 68.7335 93.2755 68.6717 93.0792C68.2891 91.8593 67.5517 90.9916 67.0535 89.8465C66.7663 89.1861 66.6579 88.4765 66.5947 87.7588C67.0459 88.7574 67.6301 89.5136 68.9481 90.0772C69.5896 90.3514 70.6751 90.8298 71.3991 90.8952C70.5376 90.8173 69.4982 91.2783 68.9042 93.2069Z" fill="#D38576"/>
<g id="Group_23">
<g id="Group_24">
<path id="Vector_89" d="M59.61 181.585L55.2021 183.721L47.9033 193.57L56.1259 204.162H64.3485C64.3485 204.162 64.1276 202.13 63.1519 201.432C62.1762 200.736 59.61 199.005 59.61 199.005L58.727 195.148L64.8341 185.855L59.61 181.585Z" fill="#272C34"/>
</g>
<path id="Vector_90" d="M74.036 187.496L70.1483 192.032C70.1483 192.032 68.3343 198.122 68.3343 198.641C68.3343 199.159 67.5566 202.269 67.6865 203.047C67.816 203.824 67.6865 204.731 68.4638 204.731C69.2415 204.731 86.4761 203.953 86.4761 203.953C86.4761 203.953 86.6056 202.01 83.8844 200.843C81.8043 199.952 78.4416 197.733 78.1827 197.344C77.9233 196.956 79.6082 187.626 79.6082 187.626L74.036 187.496Z" fill="#272C34"/>
<path id="Vector_91" d="M67.89 161.709L55.2021 183.721C55.2021 183.721 57.1702 190.501 64.8247 190.938C64.8247 190.938 77.2899 174.492 81.2265 170.336C85.163 166.181 84.0695 160.058 84.0695 160.058L67.89 161.709Z" fill="#263238"/>
<path id="Vector_92" d="M44.4092 146.907C49.6741 145.949 60.0636 140.876 60.7818 140.158C61.4995 139.44 79.7904 141.314 84.6799 142.681C90.5187 144.312 92.9899 146.428 93.4683 150.018C93.9468 153.608 89.6393 168.206 87.0068 176.103C84.3744 184 81.6819 191.902 81.6819 191.902C81.6819 191.902 75.3324 195.141 70.149 192.031C70.149 192.031 74.3235 166.291 74.8024 162.701C74.8024 162.701 65.7084 163.658 57.3326 161.504C48.9564 159.351 44.4092 146.907 44.4092 146.907Z" fill="#263238"/>
<path id="Vector_93" d="M55.5332 96.1399C55.8858 95.2583 56.4149 92.4372 59.5885 92.0846C62.7626 91.7321 68.0521 92.6137 68.9338 93.3189C69.8154 94.024 69.992 100.372 69.992 100.372L55.5332 96.1399Z" fill="#FFD7C3"/>
<path id="Vector_94" d="M44.3642 148.841C53.3157 147.964 65.3239 140.078 65.3239 140.078C65.3239 140.078 66.4031 136.617 67.9523 131.968C69.502 127.319 70.8796 124.22 71.9122 119.916C72.9453 115.611 75.528 102.182 75.0115 100.115C74.4949 98.0493 72.6008 96.6722 70.3626 95.8111C68.1244 94.95 57.7935 93.5729 52.284 94.606C46.7745 95.6391 44.5358 104.248 42.1256 109.413C39.7149 114.579 34.894 138.167 34.5499 141.61C34.2058 145.053 35.5834 149.702 44.3642 148.841Z" fill="#FF725E"/>
<path id="Vector_95" d="M70.1484 192.032L74.8018 162.702" stroke="#444644" strokeWidth="1.5251" strokeMiterlimit="10"/>
<g id="Group_25">
<g id="Group_26">
<path id="Vector_96" d="M55.3731 164.514H52.4414V195.881H55.3731V164.514Z" fill="#6C273E"/>
<path id="Vector_97" d="M54.1407 185.28H53.6739C52.5014 185.28 51.5508 186.231 51.5508 187.403V196.94C51.5508 197.497 52.0024 197.949 52.5601 197.949H55.2548C55.8122 197.949 56.2637 197.497 56.2637 196.94V187.403C56.2637 186.231 55.3131 185.28 54.1407 185.28Z" fill="#6C273E"/>
<g id="Group_27">
<path id="Vector_98" d="M53.9078 196.885C53.5633 196.885 53.2842 197.164 53.2842 197.509V201.534C53.2842 201.878 53.5633 202.157 53.9078 202.157C54.2519 202.157 54.5314 201.878 54.5314 201.534V197.509C54.531 197.164 54.2519 196.885 53.9078 196.885Z" fill="#6C273E"/>
</g>
<path id="Vector_99" d="M57.8006 167.621H50.013C48.9347 167.621 47.9603 166.977 47.5383 165.985L46.4958 163.534C45.7413 161.76 47.0428 159.792 48.9705 159.792H58.8431C60.7708 159.792 62.0723 161.76 61.3178 163.534L60.2753 165.985C59.8533 166.977 58.8789 167.621 57.8006 167.621Z" fill="#6C273E"/>
<path id="Vector_100" d="M68.5515 202.775C68.5515 203.939 67.6076 204.883 66.4432 204.883C65.2789 204.883 64.335 203.939 64.335 202.775C64.335 201.61 65.2789 200.667 66.4432 200.667C67.6076 200.667 68.5515 201.61 68.5515 202.775Z" fill="#6C273E"/>
<path id="Vector_101" d="M56.0154 202.775C56.0154 203.939 55.0715 204.883 53.9071 204.883C52.7428 204.883 51.7988 203.939 51.7988 202.775C51.7988 201.61 52.7428 200.667 53.9071 200.667C55.0715 200.667 56.0154 201.61 56.0154 202.775Z" fill="#6C273E"/>
<path id="Vector_102" d="M39.2637 202.775C39.2637 203.939 40.2076 204.883 41.372 204.883C42.5363 204.883 43.4802 203.939 43.4802 202.775C43.4802 201.61 42.5363 200.667 41.372 200.667C40.2076 200.667 39.2637 201.61 39.2637 202.775Z" fill="#6C273E"/>
<g id="Group_28">
<path id="Vector_103" d="M42.1742 203.663L40.9287 203.1C43.2175 198.038 48.1845 194.894 53.8916 194.894C53.8925 194.894 53.8929 194.894 53.8938 194.894C59.5991 194.895 64.5638 198.039 66.8509 203.1L65.6054 203.663C63.5424 199.098 59.0548 196.261 53.8934 196.26H53.8916C48.7284 196.26 44.239 199.097 42.1742 203.663Z" fill="#6C273E"/>
</g>
</g>
</g>
<g id="Group_29">
<path id="Vector_104" d="M63.9428 158.62C54.2602 160.72 51.5574 148.794 50.665 134.815C50.3223 129.444 50.0938 123.501 50.3631 115.187C50.6081 107.628 46.0349 102.142 37.6367 102.612C37.6367 102.612 43.8639 122.433 44.8137 133.117C45.7634 143.8 43.7497 152.051 49.562 158.282C55.3735 164.514 63.9428 158.62 63.9428 158.62Z" fill="#5C2135"/>
<path id="Vector_105" d="M59.6007 157.379C52.3597 156.474 48.5459 141.62 47.3551 130.506C46.7974 125.299 45.0107 114.471 44.81 110.774C44.608 107.044 43.5265 102.76 36.987 102.549C30.0861 102.326 22.2738 102.762 19.089 102.767C13.0208 102.777 12.6414 106.397 13.7793 109.225C16.371 115.667 15.1578 141.891 19.9209 152.212C24.6841 162.532 31.4296 164.913 50.0857 164.913C68.7413 164.913 78.35 164.137 80.5604 162.882C82.9559 161.522 84.893 157.613 81.4322 157.379C79.0233 157.216 62.7762 157.776 59.6007 157.379Z" fill="#6C273E"/>
</g>
</g>
<path id="Vector_106" d="M81.0009 130.843C79.5387 130.454 78.7103 130.551 78.3201 131.331C77.9304 132.111 77.248 132.939 77.248 133.329C77.248 133.719 78.4178 133.719 78.7592 133.622C79.1005 133.524 79.6363 133.866 80.1238 133.768C80.6112 133.67 82.512 133.524 82.512 133.524L81.0009 130.843Z" fill="#EBB6A4"/>
<path id="Vector_107" d="M65.1866 102.927C65.5965 99.0303 70.9564 95.8105 70.9564 95.8105C70.9564 95.8105 75.3082 97.0421 77.8977 101.044C80.4871 105.045 85.1947 115.638 87.3133 120.11C89.4319 124.582 90.5676 127.82 91.0384 129.938C91.5093 132.057 91.0796 135.881 84.7243 135.41C78.369 134.939 74.3674 123.876 70.3659 118.462C66.3635 113.048 64.7157 107.399 65.1866 102.927Z" fill="#FF725E"/>
<path id="Vector_108" d="M73.9777 124.183C73.9777 124.183 69.1994 115.372 67.9355 111.158L73.9777 124.183Z" fill="#FFD7C3"/>
</g>
</g>
</g>
</svg>
