<svg width="309" height="206" viewBox="0 0 309 206" fill="none" xmlns="http://www.w3.org/2000/svg">
<g clip-path="url(#clip0_131_6529)">
<path opacity="0.1" d="M257.214 92.2936V183.432H55.767V114.673H52.1084V109.429H55.767V107.624H78.1427V134.627H79.6588V62.9098L92.1012 50.4674V45.9972H102.405V83.5716L107.049 78.9284H111.449V44.3492L121.567 34.2305H138.933V115.741H150.243V42.7547H180.075V80.1726H185.572V52.033H187.335V40.3693H189.016V52.033H198.611L203.959 57.3849V93.2948H229.087V157.357H233.125V98.2594L239.095 92.2936H245.608V82.7628H248.134V92.2936H257.214Z" fill="white"/>
<path opacity="0.1" d="M217.053 57.6687H276.864C276.864 57.6687 274.378 50.0454 266.996 47.6937C259.614 45.342 254.868 51.9522 254.868 51.9522C254.868 51.9522 253.586 48.3826 249.54 48.4695C245.024 48.5667 244.137 52.4284 244.137 52.4284C244.137 52.4284 242.27 42.814 231.643 43.2466C217.778 43.8106 217.053 57.6687 217.053 57.6687Z" fill="url(#paint0_linear_131_6529)"/>
<path opacity="0.1" d="M51.7666 34.7089H94.8779C94.8779 34.7089 94.4626 27.044 88.0943 25.3458C81.726 23.6475 77.6954 30.1629 77.6954 30.1629C77.6954 30.1629 72.8589 22.8276 64.8785 22.8276C54.4804 22.8272 51.7666 34.7089 51.7666 34.7089Z" fill="url(#paint1_linear_131_6529)"/>
<path d="M209.493 25.2358C211.152 23.0774 213.76 21.686 216.692 21.686C221.704 21.686 225.767 25.7488 225.767 30.7607" stroke="black" strokeWidth="0.75" strokeMiterlimit="10" strokeLinecap="round"/>
<path d="M167.479 30.8603C168.605 29.1863 170.518 28.0851 172.687 28.0851C174.006 28.0851 175.23 28.4925 176.24 29.188C176.24 19.8764 183.789 12.3281 193.1 12.3281C202.411 12.3281 209.96 19.8768 209.96 29.188" stroke="black" strokeWidth="0.75" strokeMiterlimit="10" strokeLinecap="round" strokeLinejoin="round"/>
<path d="M235.072 83.4768C236.716 77.9037 241.872 73.836 247.977 73.836C250.637 73.836 253.117 74.6077 255.204 75.9397L255.202 75.9388C256.707 72.5662 260.09 70.2153 264.022 70.2153C268.406 70.2153 272.107 73.1372 273.285 77.1398" stroke="black" strokeWidth="0.75" strokeMiterlimit="10" strokeLinecap="round" strokeLinejoin="round"/>
<path d="M267.803 82.573C268.237 80.8574 269.296 79.2955 270.901 78.2606C274.265 76.0902 278.752 77.0579 280.922 80.4223" stroke="black" strokeWidth="0.75" strokeMiterlimit="10" strokeLinecap="round"/>
<path d="M78.0496 42.5645C77.3633 42.5645 76.8066 43.1211 76.8066 43.8087C76.8066 44.4951 77.3633 45.0517 78.0496 45.0517C78.7369 45.0517 79.2935 44.4951 79.2935 43.8087C79.2935 43.1211 78.7369 42.5645 78.0496 42.5645ZM78.0496 44.575C77.6265 44.575 77.2833 44.2318 77.2833 43.8087C77.2833 43.3843 77.6265 43.0411 78.0496 43.0411C78.474 43.0411 78.8172 43.3843 78.8172 43.8087C78.8168 44.2318 78.4736 44.575 78.0496 44.575Z" fill="url(#paint2_linear_131_6529)"/>
<path d="M292.614 104.005C292.614 104.47 292.238 104.847 291.772 104.847C291.307 104.847 290.931 104.47 290.931 104.005C290.931 103.541 291.307 103.164 291.772 103.164C292.238 103.164 292.614 103.541 292.614 104.005Z" fill="black"/>
<path d="M270.367 127.214C270.367 127.446 270.178 127.634 269.946 127.634C269.714 127.634 269.525 127.446 269.525 127.214C269.525 126.981 269.714 126.793 269.946 126.793C270.178 126.793 270.367 126.981 270.367 127.214Z" fill="black"/>
<path d="M35.3963 114.595C35.3963 115.06 35.0193 115.437 34.5546 115.437C34.0899 115.437 33.7129 115.06 33.7129 114.595C33.7129 114.13 34.0895 113.753 34.5546 113.753C35.0198 113.754 35.3963 114.13 35.3963 114.595Z" fill="black"/>
<path d="M53.7204 136.416C53.7204 137.306 52.9986 138.028 52.1082 138.028C51.2179 138.028 50.4961 137.306 50.4961 136.416C50.4961 135.526 51.2179 134.804 52.1082 134.804C52.9986 134.804 53.7204 135.526 53.7204 136.416Z" fill="black"/>
<path d="M266.996 97.3781C266.996 98.4349 266.139 99.2918 265.083 99.2918C264.025 99.2918 263.169 98.4349 263.169 97.3781C263.169 96.3213 264.026 95.4644 265.083 95.4644C266.14 95.4644 266.996 96.3213 266.996 97.3781Z" fill="url(#paint3_linear_131_6529)"/>
<path d="M256.628 65.2952C256.628 66.2671 255.839 67.0553 254.867 67.0553C253.896 67.0553 253.107 66.2671 253.107 65.2952C253.107 64.3233 253.895 63.5352 254.867 63.5352C255.84 63.5356 256.628 64.3233 256.628 65.2952Z" fill="black"/>
<path d="M144.302 53.9533C144.302 54.3752 143.96 54.7176 143.538 54.7176C143.116 54.7176 142.774 54.3756 142.774 53.9533C142.774 53.5314 143.116 53.1895 143.538 53.1895C143.96 53.1895 144.302 53.5314 144.302 53.9533Z" fill="black"/>
<path d="M172.285 20.0748C172.285 20.6367 171.83 21.0924 171.268 21.0924C170.706 21.0924 170.25 20.6367 170.25 20.0748C170.25 19.5128 170.706 19.0571 171.268 19.0571C171.83 19.0571 172.285 19.5128 172.285 20.0748Z" fill="black"/>
<path d="M163.702 24.1422C163.702 24.8525 163.126 25.4285 162.416 25.4285C161.706 25.4285 161.13 24.8525 161.13 24.1422C161.13 23.4319 161.706 22.856 162.416 22.856C163.126 22.856 163.702 23.4319 163.702 24.1422Z" fill="black"/>
<path d="M229.809 150.993C230.39 150.993 230.861 150.522 230.861 149.942C230.861 149.361 230.39 148.89 229.809 148.89C229.229 148.89 228.758 149.361 228.758 149.942C228.758 150.522 229.229 150.993 229.809 150.993Z" fill="url(#paint4_linear_131_6529)"/>
<path d="M222.308 71.5666C222.308 72.1616 221.826 72.644 221.231 72.644C220.636 72.644 220.153 72.1616 220.153 71.5666C220.153 70.9717 220.636 70.4893 221.231 70.4893C221.826 70.4897 222.308 70.9717 222.308 71.5666Z" fill="black"/>
<path d="M209.381 43.2319C209.381 44.2455 208.559 45.0674 207.545 45.0674C206.532 45.0674 205.71 44.2459 205.71 43.2319C205.71 42.218 206.532 41.3965 207.545 41.3965C208.559 41.3965 209.381 42.218 209.381 43.2319Z" fill="url(#paint5_linear_131_6529)"/>
<path d="M66.9255 131.903L54.4044 116.94L52.8516 118.352L66.9255 141.105" fill="black"/>
<path d="M27.0121 97.8991C19.7979 79.8172 48.8584 86.9922 48.8584 86.9922C48.8584 86.9922 20.0653 70.2263 24.8264 61.9994C28.5562 55.5545 51.3637 64.1851 51.3637 64.1851C51.3637 64.1851 43.3849 57.2606 47.7319 53.6128C54.9218 47.5794 88.8104 65.8644 90.1428 75.265C91.4752 84.6656 75.8967 82.0062 75.8967 82.0062C75.8967 82.0062 95.381 91.9865 94.9072 100.355C94.4334 108.723 80.507 106.541 80.507 106.541C80.507 106.541 101.334 118.472 94.9072 127.608C84.6719 142.159 34.4635 116.575 27.0121 97.8991Z" fill="#E6D4BE"/>
<path opacity="0.3" d="M94.9079 127.61C84.6738 142.162 34.4634 116.576 27.0103 97.9005C19.7962 79.8178 48.8587 86.9908 48.8587 86.9908C48.8587 86.9908 20.064 70.2265 24.8267 61.9988C25.4942 60.8452 26.7714 60.1778 28.4194 59.8564C28.2793 59.943 24.6537 62.2419 29.3958 66.844C34.2327 71.5408 45.6785 81.2401 65.829 91.6093C65.829 91.6093 51.24 89.677 48.5002 95.8034C44.7346 104.221 77.262 127.622 96.1274 123.49C96.2016 124.891 95.8432 126.279 94.9079 127.61Z" fill="url(#paint6_linear_131_6529)"/>
<path d="M67.4186 183.323L64.165 87.9087H67.7577L77.1064 183.323H67.4186Z" fill="black"/>
<path d="M76.7368 91.847L67.8623 118.322L70.6355 121.049L78.7815 91.6089L76.7368 91.847Z" fill="black"/>
<path d="M178.266 183.324C178.266 183.324 186.582 177.48 194.32 179.314C194.32 179.314 189.215 179.806 183.895 183.324H178.266Z" fill="black"/>
<path d="M169.971 181.309C169.971 181.309 171.737 170.418 180.446 164.024C180.446 164.024 176.742 174.656 176.581 178.516C176.581 178.516 180.692 173.107 183.916 171.011C183.916 171.011 180.155 176.492 179.617 179.394C179.617 179.394 185.689 175.686 190.687 175.646C190.687 175.646 184.239 179.806 180.692 183.324H169.971V181.309H169.971Z" fill="url(#paint7_linear_131_6529)"/>
<path d="M89.9326 172.704C89.9326 172.704 86.2246 165.489 79.5342 159.484C79.5342 159.484 91.2626 161.862 94.6888 174.8C98.6769 189.861 89.9326 172.704 89.9326 172.704Z" fill="black"/>
<path d="M227.186 164.747L234.768 172.849C234.768 172.849 233.024 177.291 228.3 178.08L218.823 170.19L227.186 164.747Z" fill="url(#paint8_linear_131_6529)"/>
<path d="M228.667 166.334L222.841 173.536L218.82 170.19L227.184 164.748L228.667 166.334Z" fill="url(#paint9_linear_131_6529)"/>
<path d="M166.571 164.96L163.045 175.483C163.045 175.483 166.478 178.796 171.102 177.55L176.44 166.434L166.571 164.96Z" fill="url(#paint10_linear_131_6529)"/>
<path d="M176.442 166.433L172.779 174.055L164.684 170.586L166.571 164.962L176.442 166.433Z" fill="url(#paint11_linear_131_6529)"/>
<path d="M200.8 115.562C200.8 115.562 177.25 136.45 175.221 139.29C173.192 142.131 164.744 169.145 164.744 169.145C169.743 170.628 175.338 172.16 179.029 173.231L187.467 148.302L206.481 133.786L209.394 118.29L200.8 115.562Z" fill="#323945"/>
<path d="M197.859 129.727L193.665 143.57L187.971 147.921L187.963 147.925L197.859 129.727Z" fill="black"/>
<path d="M203.946 116.561C203.946 116.561 192.279 140.466 191.905 146.461C191.685 149.983 215.772 175.161 215.772 175.161C220.062 172.113 224.529 168.311 228.3 165.132L208.996 144.705L213.813 132.124C213.813 132.124 219.584 127.905 218.207 120.98L203.946 116.561Z" fill="#323945"/>
<path d="M194.884 98.5174C194.884 98.5174 176.639 93.0452 175.74 92.7403L173.818 86.7754C173.818 86.7754 188.155 89.6689 193.272 90.5909C197.285 91.314 194.884 98.5174 194.884 98.5174Z" fill="url(#paint12_linear_131_6529)"/>
<path d="M194.883 98.5184C194.883 98.5184 193.342 98.057 191.134 97.3936L190.582 90.0889C191.62 90.2866 192.543 90.4597 193.272 90.5915C197.285 91.3125 194.883 98.5184 194.883 98.5184Z" fill="url(#paint13_linear_131_6529)"/>
<path d="M239.965 183.189H217.321C217.321 183.189 217.268 182.62 217.33 181.813C217.338 181.722 217.346 181.627 217.354 181.528C217.49 180.177 217.952 178.315 219.373 177.211C220.811 176.098 222.669 175.847 224.272 175.896C224.259 175.628 224.28 175.365 224.362 175.159C224.395 175.064 224.441 174.986 224.502 174.92C225.03 174.372 229.026 173.952 230.023 174.479C230.472 174.714 230.893 175.171 231.214 175.608C232.602 175.068 234.044 174.207 234.765 172.852C234.765 172.852 236.471 172.876 237.39 174.45C238.754 176.782 239.429 179.724 239.734 181.528C239.907 182.534 239.965 183.189 239.965 183.189Z" fill="#050607"/>
<path d="M239.964 183.189H217.143C217.143 183.189 216.995 182.851 217.105 181.974C217.117 181.884 217.211 181.63 217.353 181.528H217.684C217.684 181.528 218.102 180.69 218.732 180.496C219.114 180.379 220.825 180.388 221.14 180.519C221.63 180.723 222.077 181.528 222.077 181.528H239.734C240.186 182.203 239.964 183.189 239.964 183.189Z" fill="white"/>
<path d="M172.73 174.164C172.73 174.164 173.649 174.265 174.07 175.95C174.491 177.635 175.195 181.933 175.195 183.432H150.187C150.187 183.432 149.966 178.649 152.908 176.855C155.985 174.98 162.312 175.267 162.312 175.267C162.312 175.267 162.815 174.026 163.367 173.671C163.919 173.316 165.017 174.345 166.082 175.91C167.068 176.305 171.637 175.871 172.73 174.164Z" fill="#050607"/>
<path d="M175.304 183.432H149.905C149.905 183.432 149.868 182.132 150.066 180.953C150.145 180.481 150.483 180.107 150.713 179.839C152.11 180.201 152.402 181.528 152.402 181.528H175.038C175.357 181.636 175.402 182.969 175.304 183.432Z" fill="white"/>
<path d="M208.995 144.705L207.265 142.696C207.265 142.696 208.912 142.932 209.765 142.696L208.995 144.705Z" fill="black"/>
<path d="M219.855 112.152C219.202 100.049 216.237 97.8454 216.237 97.8454C213.765 94.7521 204.4 92.7506 200.606 92.0008V92.0016L191.821 90.2012L193.877 101.003L200.258 102.145L197.858 117.038C202.666 125.863 212.422 129.884 220.517 126.918C220.192 121.768 220.011 117.038 219.855 112.152Z" fill="url(#paint14_linear_131_6529)"/>
<path d="M213.659 127.214L221.022 125.709L228.409 134.996C229.069 135.825 229.073 137.001 228.416 137.832C226.078 140.788 222.96 143.167 220.136 145.029L213.659 127.214Z" fill="#F8BF92"/>
<path d="M213.659 127.214L208.631 129.575C208.631 129.575 212.413 138.82 214.621 143.646C215.395 145.338 217.328 146.24 219.08 145.615C219.105 145.606 219.129 145.598 219.153 145.589C221.23 144.818 222.079 142.325 221.001 140.389L213.659 127.214Z" fill="#F8BF92"/>
<path d="M213.659 127.214L208.631 129.575C208.631 129.575 212.413 138.82 214.621 143.646C215.395 145.338 217.328 146.24 219.08 145.615C219.105 145.606 219.129 145.598 219.153 145.589C221.23 144.818 222.079 142.325 221.001 140.389L213.659 127.214Z" fill="#F8BF92"/>
<path d="M221.022 125.709C218.962 124.798 213.659 127.214 213.659 127.214C215.554 127.483 219.485 133.964 221.882 136.403C224.328 135.279 227.085 132.994 228.801 131.08" fill="black"/>
<path d="M221.526 134.883C221.526 134.883 223.884 138.059 226.143 139.533L227.706 138.042C227.706 138.042 224.465 135.783 223.155 133.851" fill="black"/>
<path d="M225.07 131.362C225.07 131.362 227.834 133.689 230.622 134.443L231.54 132.823C231.54 132.823 227.913 131.595 226.173 130.15" fill="black"/>
<path d="M201.732 92.2285C201.732 92.2285 201.798 113.871 210.053 130.425L213.358 128.719C213.358 128.719 204.256 114.639 204.417 92.4048L201.732 92.2285Z" fill="black"/>
<path d="M213.142 90.179C213.165 90.1156 213.188 90.0526 213.211 89.9887C213.211 89.9875 213.214 89.98 213.214 89.98H213.213C214.484 86.361 214.71 82.4808 210.405 81.2419C204.267 79.4753 202.905 84.2112 202.628 86.0426C202.319 88.0853 201.877 93.4479 203.899 94.7823C204.571 95.2256 204.974 95.4139 206.598 95.1576L205.78 98.293C208.532 97.9354 213.261 97.1291 213.261 97.1291C211.634 93.351 212.839 91.0653 213.142 90.179Z" fill="url(#paint15_linear_131_6529)"/>
<path d="M214.309 89.9782C213.259 91.9595 212.518 93.5807 212.518 93.5807L211.967 93.9008L211.512 91.8594C211.697 91.6493 211.867 91.3592 212.018 90.9839C212.293 90.2983 212.673 88.6174 211.122 88.4171C209.846 88.2569 209.496 89.4578 209.416 90.0433C209.401 90.1434 209.386 90.2687 209.376 90.4137C209.086 90.2386 208.825 89.9885 208.65 89.6231C207.98 88.2169 208.48 87.0011 208.48 87.0011C208.48 87.0011 204.602 87.5762 202.526 86.0753C200.449 84.5744 200.279 80.6567 200.985 80.0564C202.031 79.1657 203.877 81.2422 204.067 81.4572C203.992 81.332 203.582 80.6316 204.067 80.2315C204.527 79.8463 205.648 81.0621 205.648 81.0621C205.648 81.0621 204.643 78.6503 205.779 78.155C207.38 77.4596 209.941 80.1664 210.082 80.3213C210.047 80.2014 209.491 78.45 211.157 78.7804C212.288 79.0005 214.27 83.2984 214.27 83.2984C217.711 84.1142 215.36 88.0018 214.309 89.9782Z" fill="black"/>
<path d="M211.491 113.297L212.404 114.482L218.757 110.242L212.108 115.901L210.514 113.818L211.491 113.297Z" fill="url(#paint16_linear_131_6529)"/>
<path d="M200.258 102.145L200.796 99.3232L199.106 101.938L200.258 102.145Z" fill="url(#paint17_linear_131_6529)"/>
<path d="M206.599 95.158C206.599 95.158 208.73 94.7756 210.261 92.9019C210.261 92.9019 209.515 95.4068 206.301 96.3004L206.599 95.158Z" fill="url(#paint18_linear_131_6529)"/>
<path d="M211.647 171.78L215.561 175.646L228.648 165.207L224.186 159.605L211.647 171.78Z" fill="#14181E"/>
<path d="M164.173 169.104L178.844 173.959L181.316 168.11L165.248 163.488L164.173 169.104Z" fill="#14181E"/>
<path d="M115.153 98.6658L105.466 100.93L102.26 87.2159L111.947 84.9512L115.153 98.6658Z" fill="url(#paint19_linear_131_6529)"/>
<path d="M106.295 157.199L96.5 115.296L164.797 99.3315L174.592 141.235L106.295 157.199Z" fill="#F7EDE6"/>
<path d="M97.6305 120.132L96.5 115.296L164.797 99.3315L165.927 104.168L97.6305 120.132Z" fill="url(#paint20_linear_131_6529)"/>
<path d="M161.066 83.3784L165.302 101.501L89.499 119.22L88.7607 116.06L100.157 97.6159L161.066 83.3784Z" fill="black"/>
<path d="M188.154 138.065C187.993 138.103 150.371 146.897 150.371 146.897L136.675 88.3021L151.151 64.9932L174.46 79.4696C176.603 88.5381 188.303 138.03 188.154 138.065Z" fill="url(#paint21_linear_131_6529)"/>
<path d="M188.154 138.065C187.993 138.103 150.371 146.897 150.371 146.897L136.675 88.3021L151.151 64.9932L174.46 79.4696C176.603 88.5381 188.303 138.03 188.154 138.065Z" fill="url(#paint22_linear_131_6529)"/>
<path d="M188.154 138.065L150.371 146.897L136.675 88.3021L151.151 64.9932L174.457 79.4704L188.154 138.065Z" fill="url(#paint23_linear_131_6529)"/>
<path d="M188.148 138.092L150.365 146.924L136.669 88.3289L151.145 65.02L174.451 79.4973L188.148 138.092Z" fill="#F7EDE6"/>
<path d="M174.458 79.4719L175.741 84.9618L152.436 70.4845L137.959 93.7934L136.676 88.3035L151.152 64.9946L174.458 79.4719Z" fill="url(#paint24_linear_131_6529)"/>
<path d="M115.455 94.0398L119.691 112.162L147.803 105.591L147.065 102.431L128.673 90.9502L115.455 94.0398Z" fill="black"/>
<path d="M113.386 83.1697L100.186 86.2549L101.035 89.8878L114.235 86.8026L113.386 83.1697Z" fill="black"/>
<path d="M147.103 147.66L131.603 151.283L124.445 120.662L139.946 117.039L147.103 147.66Z" fill="#717171"/>
<path d="M131.983 121.485L126.843 122.687L130.26 137.308L135.401 136.107L131.983 121.485Z" stroke="white" strokeWidth="0.6748" strokeMiterlimit="10"/>
<path d="M138.699 119.915L133.559 121.117L136.976 135.739L142.116 134.537L138.699 119.915Z" stroke="white" strokeWidth="0.6748" strokeMiterlimit="10"/>
<path d="M135.77 137.682L130.629 138.884L132.858 148.422L137.999 147.221L135.77 137.682Z" stroke="white" strokeWidth="0.6748" strokeMiterlimit="10"/>
<path d="M142.485 136.113L137.345 137.314L139.574 146.853L144.714 145.652L142.485 136.113Z" stroke="white" strokeWidth="0.6748" strokeMiterlimit="10"/>
<path d="M131.603 151.283L124.445 120.662L139.946 117.039L147.103 147.66" stroke="white" strokeWidth="1.4111" strokeMiterlimit="10"/>
<path d="M120.475 122.012L124.664 139.933L106.078 144.278L101.889 126.357L120.475 122.012Z" fill="white"/>
<path d="M116.177 123.017L105.229 140.645L103.871 134.836L110.368 124.375L116.177 123.017Z" fill="#6A6A6A"/>
<path d="M122.345 130.009L123.702 135.818L120.549 140.895L114.74 142.253L122.345 130.009Z" fill="#717171"/>
<path d="M119.937 122.138L106.205 144.248L106.079 144.278L105.712 142.709L118.242 122.535L119.937 122.138Z" fill="white"/>
<path d="M120.484 122.02L101.895 126.364L106.083 144.287L124.673 139.942L120.484 122.02Z" stroke="white" strokeWidth="1.5427" strokeMiterlimit="10"/>
<path d="M111.183 124.184L115.372 142.106" stroke="white" strokeWidth="1.5427" strokeMiterlimit="10"/>
<path d="M165.475 83.0122L169.664 100.933L151.078 105.278L146.889 87.3568L165.475 83.0122Z" fill="white"/>
<path d="M161.177 84.0171L150.229 101.645L148.871 95.8361L155.368 85.3746L161.177 84.0171Z" fill="#6A6A6A"/>
<path d="M167.345 91.0088L168.702 96.8176L165.549 101.895L159.74 103.253L167.345 91.0088Z" fill="#717171"/>
<path d="M164.937 83.1382L151.205 105.248L151.079 105.278L150.712 103.709L163.242 83.5345L164.937 83.1382Z" fill="white"/>
<path d="M165.484 83.0196L146.895 87.3643L151.083 105.287L169.673 100.942L165.484 83.0196Z" stroke="white" strokeWidth="1.5427" strokeMiterlimit="10"/>
<path d="M156.183 85.1841L160.372 103.106" stroke="white" strokeWidth="1.5427" strokeMiterlimit="10"/>
<path d="M171.475 110.012L175.664 127.933L157.078 132.278L152.889 114.357L171.475 110.012Z" fill="white"/>
<path d="M167.177 111.017L156.229 128.645L154.871 122.836L161.368 112.375L167.177 111.017Z" fill="#6A6A6A"/>
<path d="M173.345 118.009L174.702 123.818L171.549 128.895L165.74 130.253L173.345 118.009Z" fill="#717171"/>
<path d="M170.937 110.138L157.205 132.248L157.079 132.278L156.712 130.709L169.242 110.535L170.937 110.138Z" fill="white"/>
<path d="M171.484 110.02L152.895 114.364L157.083 132.287L175.673 127.942L171.484 110.02Z" stroke="white" strokeWidth="1.5427" strokeMiterlimit="10"/>
<path d="M162.183 112.184L166.372 130.106" stroke="white" strokeWidth="1.5427" strokeMiterlimit="10"/>
<path d="M134.979 91.032L151.151 64.9932L177.19 81.165" stroke="black" strokeWidth="6.9423" strokeMiterlimit="10"/>
<path d="M143.641 137.333C143.439 137.38 143.237 137.254 143.19 137.053L142.327 133.364C142.28 133.162 142.406 132.96 142.608 132.913C142.809 132.865 143.011 132.991 143.059 133.193L143.921 136.882C143.968 137.084 143.843 137.285 143.641 137.333Z" fill="white"/>
<path d="M143.124 135.123L141.03 135.612" stroke="white" strokeWidth="0.7714" strokeMiterlimit="10" strokeLinecap="round"/>
<path d="M99.0791 100.221L136.887 91.3838" stroke="white" strokeWidth="0.3857" strokeMiterlimit="10"/>
<path d="M96.7285 104.025L137.608 94.4697" stroke="white" strokeWidth="0.3857" strokeMiterlimit="10"/>
<path d="M94.3311 107.84L138.33 97.5552" stroke="white" strokeWidth="0.3857" strokeMiterlimit="10"/>
<path d="M92.0283 111.633L142.137 99.9199" stroke="white" strokeWidth="0.3857" strokeMiterlimit="10"/>
<path d="M89.6777 115.437L145.944 102.285" stroke="white" strokeWidth="0.3857" strokeMiterlimit="10"/>
<path d="M97.0099 117.472L96.041 117.698L105.329 157.436L106.297 157.209L97.0099 117.472Z" fill="black"/>
<path d="M141.092 107.169L140.123 107.395L149.411 147.132L150.38 146.906L141.092 107.169Z" fill="black"/>
<path d="M121.384 46.5376C121.384 46.5376 122.067 50.1381 121.65 53.9536" stroke="url(#paint25_linear_131_6529)" strokeMiterlimit="10" strokeLinecap="round" strokeLinejoin="round"/>
<path d="M121.128 46.5449C121.128 46.5449 120.604 51.643 118.521 55.1223" stroke="url(#paint26_linear_131_6529)" strokeMiterlimit="10" strokeLinecap="round" strokeLinejoin="round"/>
<path d="M111.574 64.0679C111.574 64.0679 121.45 76.4571 132.252 86.5231" stroke="url(#paint27_linear_131_6529)" strokeMiterlimit="10"/>
<path d="M132.252 86.5229C130.104 88.3477 119.983 97.0042 95.7363 118.454" stroke="url(#paint28_linear_131_6529)" strokeMiterlimit="10" strokeLinecap="round"/>
<path d="M121.128 46.1484C121.128 46.1484 127.093 71.4881 132.252 86.5232" stroke="url(#paint29_linear_131_6529)" strokeMiterlimit="10"/>
<path d="M132.252 86.523L175.664 82.5518" stroke="url(#paint30_linear_131_6529)" strokeMiterlimit="10" strokeLinecap="round"/>
<path d="M121.983 47.2252C121.944 46.7098 122.205 46.1421 122.205 46.1421H121.184H120.163C120.163 46.1421 120.424 46.7098 120.385 47.2252C120.331 47.9339 119.207 48.4897 119.393 48.8362C119.529 49.09 120.325 49.2453 121.183 49.2453C122.042 49.2453 122.838 49.09 122.974 48.8362C123.161 48.4897 122.037 47.9339 121.983 47.2252Z" fill="url(#paint31_linear_131_6529)"/>
<path opacity="0.5" d="M121.983 47.2252C121.944 46.7098 122.205 46.1421 122.205 46.1421H121.184H120.163C120.163 46.1421 120.424 46.7098 120.385 47.2252C120.331 47.9339 119.207 48.4897 119.393 48.8362C119.529 49.09 120.325 49.2453 121.183 49.2453C122.042 49.2453 122.838 49.09 122.974 48.8362C123.161 48.4897 122.037 47.9339 121.983 47.2252Z" fill="url(#paint32_linear_131_6529)"/>
<path d="M121.184 14.6641C121.184 14.6641 106.889 14.6641 106.889 27.5794C106.889 37.6355 115.662 43.8555 119.462 46.0782C120.528 46.7012 121.841 46.7012 122.906 46.0782C126.707 43.8555 135.48 37.6355 135.48 27.5794C135.48 14.6641 121.184 14.6641 121.184 14.6641Z" fill="url(#paint33_linear_131_6529)"/>
<path opacity="0.3" d="M134.741 32.5203C132.553 39.6973 126.039 44.2458 122.908 46.0792C121.841 46.7013 120.527 46.7013 119.464 46.0792C115.661 43.8544 106.89 37.6373 106.89 27.5804C106.89 21.9978 109.559 18.8295 112.592 17.0332C111.389 18.2445 106.89 30.7924 121.184 35.1855C126.217 36.7322 132.442 35.5856 134.741 32.5203Z" fill="url(#paint34_linear_131_6529)"/>
<path d="M112.85 64.502C112.584 64.0583 112.564 63.4341 112.564 63.4341L111.651 63.8902L110.737 64.3463C110.737 64.3463 111.224 64.7377 111.42 65.2164C111.688 65.8748 110.931 66.8739 111.252 67.1009C111.488 67.2669 112.269 67.0506 113.037 66.667C113.805 66.2835 114.448 65.7891 114.456 65.5011C114.468 65.1068 113.215 65.1118 112.85 64.502Z" fill="#E6D4BE"/>
<g opacity="0.3">
<path d="M112.85 64.502C112.584 64.0583 112.564 63.4341 112.564 63.4341L111.651 63.8902L110.737 64.3463C110.737 64.3463 111.224 64.7377 111.42 65.2164C111.688 65.8748 110.931 66.8739 111.252 67.1009C111.488 67.2669 112.269 67.0506 113.037 66.667C113.805 66.2835 114.448 65.7891 114.456 65.5011C114.468 65.1068 113.215 65.1118 112.85 64.502Z" fill="#E6D4BE"/>
</g>
<path d="M94.6724 29.8879C94.6724 29.8879 79.2644 37.582 86.2153 51.5022C91.6277 62.3411 104.431 64.3233 109.724 64.6735C111.207 64.7715 112.622 64.065 113.435 62.8203C116.335 58.3789 122.444 46.9534 117.032 36.1145C110.081 22.1942 94.6724 29.8879 94.6724 29.8879Z" fill="#F8BF92"/>
<g opacity="0.3">
<path d="M118.305 52.0282C117.086 56.7209 114.869 60.6226 113.435 62.8185C112.624 64.0669 111.206 64.7714 109.723 64.6725C104.429 64.3223 91.6282 62.3406 86.2145 51.5009C85.7696 50.611 85.4194 49.7458 85.1475 48.9053C85.3864 49.1648 91.3027 58.4542 105.167 58.9379C115.787 59.3083 118.033 52.844 118.305 52.0282Z" fill="#E26558"/>
</g>
<path d="M120.267 46.4189C120.267 46.4189 121.371 46.6995 122.101 46.4189" stroke="url(#paint35_linear_131_6529)" strokeMiterlimit="10" strokeLinecap="round" strokeLinejoin="round"/>
<path d="M111.751 64.2871C111.751 64.2871 112.745 66.3356 111.374 69.4037" stroke="url(#paint36_linear_131_6529)" strokeMiterlimit="10" strokeLinecap="round" strokeLinejoin="round"/>
<path d="M110.953 64.5476C110.953 64.5476 111.914 64.3869 112.595 63.7285" stroke="url(#paint37_linear_131_6529)" strokeMiterlimit="10" strokeLinecap="round" strokeLinejoin="round"/>
<path d="M111.751 64.2871C111.751 64.2871 113.954 65.4403 113.659 71.5667" stroke="url(#paint38_linear_131_6529)" strokeMiterlimit="10" strokeLinecap="round" strokeLinejoin="round"/>
<path d="M206.554 107.052C204.984 108.352 198.808 112.812 198.808 112.812C198.808 112.812 188.302 117.514 185.723 118.374C185.723 118.374 183.291 117.606 182.243 117.514C181.195 117.421 177.734 117.853 177.388 117.885C176.577 117.96 176.466 119.2 177.504 119.381C177.959 119.461 181.141 119.663 181.141 119.663C181.141 119.663 175.698 121.752 175.412 122.007C175.028 122.35 175.166 122.807 175.665 122.948C176.163 123.089 181.544 121.658 181.544 121.658C181.544 121.658 176.285 123.895 176.002 124.258C175.72 124.621 175.64 125.145 176.365 125.266C177.09 125.387 182.008 123.372 182.008 123.372C182.008 123.372 177.092 126.015 176.929 126.253C176.768 126.49 176.819 127.155 177.534 127.1C178.275 127.042 182.894 124.581 182.894 124.581C182.894 124.581 179.682 126.778 179.682 127.301C179.682 127.825 179.751 128.319 180.711 128.007C181.467 127.761 187.187 122.901 187.187 122.901C187.187 122.901 198.128 120.125 201.683 118.374C203.893 117.286 208.064 115.129 211.49 113.296L206.554 107.052Z" fill="url(#paint39_linear_131_6529)"/>
<path d="M211.492 113.297C210.759 113.688 209.997 114.096 209.222 114.5L205.452 107.912C205.914 107.562 206.293 107.265 206.552 107.051L211.492 113.297Z" fill="url(#paint40_linear_131_6529)"/>
<path d="M268.601 181.309H243.244C241.587 181.309 240.243 179.965 240.243 178.308V136.384C240.243 134.726 241.587 133.383 243.244 133.383H268.601C270.259 133.383 271.602 134.726 271.602 136.384V178.308C271.602 179.965 270.259 181.309 268.601 181.309Z" fill="#F8BF92"/>
<path opacity="0.5" d="M268.601 145.243H243.244C241.587 145.243 240.243 143.899 240.243 142.242V136.384C240.243 134.726 241.587 133.383 243.244 133.383H268.601C270.259 133.383 271.602 134.726 271.602 136.384V142.242C271.602 143.899 270.259 145.243 268.601 145.243Z" fill="#F8BF92"/>
<path d="M246.002 181.309H244.275V183.324H246.002V181.309Z" fill="black"/>
<path d="M267.569 181.309H265.843V183.324H267.569V181.309Z" fill="black"/>
<path d="M246.208 178.474H243.852C243.258 178.474 242.776 177.993 242.776 177.399V147.999C242.776 147.405 243.258 146.923 243.852 146.923H246.208C246.802 146.923 247.283 147.405 247.283 147.999V177.399C247.283 177.993 246.802 178.474 246.208 178.474Z" stroke="black" strokeWidth="0.455" strokeMiterlimit="10"/>
<path d="M253.469 178.474H251.114C250.52 178.474 250.038 177.993 250.038 177.399V147.999C250.038 147.405 250.52 146.923 251.114 146.923H253.469C254.063 146.923 254.545 147.405 254.545 147.999V177.399C254.545 177.993 254.063 178.474 253.469 178.474Z" stroke="black" strokeWidth="0.455" strokeMiterlimit="10"/>
<path d="M260.731 178.474H258.376C257.781 178.474 257.3 177.993 257.3 177.399V147.999C257.3 147.405 257.781 146.923 258.376 146.923H260.731C261.325 146.923 261.807 147.405 261.807 147.999V177.399C261.807 177.993 261.325 178.474 260.731 178.474Z" stroke="black" strokeWidth="0.455" strokeMiterlimit="10"/>
<path d="M267.994 178.474H265.638C265.044 178.474 264.562 177.993 264.562 177.399V147.999C264.562 147.405 265.044 146.923 265.638 146.923H267.994C268.588 146.923 269.069 147.405 269.069 147.999V177.399C269.069 177.993 268.588 178.474 267.994 178.474Z" stroke="black" strokeWidth="0.455" strokeMiterlimit="10"/>
<path d="M250.464 122.182H248.825V135.06H250.464V122.182Z" fill="black"/>
<path d="M263.019 122.182H261.381V135.06H263.019V122.182Z" fill="black"/>
<path d="M265.445 121.208H246.399V123.485H265.445V121.208Z" fill="black"/>
<path d="M240.897 137.048H270.845" stroke="black" strokeWidth="0.455" strokeMiterlimit="10"/>
<path d="M243.574 140.286H241.795L242.228 136.983H243.141L243.574 140.286Z" fill="black"/>
<path d="M258.616 156.859L248.814 160.227L247.085 155.195L256.887 151.828L258.616 156.859Z" fill="#E26C5E"/>
<path d="M258.616 156.859L248.814 160.227L247.085 155.195L256.887 151.828L258.616 156.859Z" fill="#E26C5E"/>
<path d="M256.394 152.69L247.98 155.581L249.283 159.371L257.696 156.48L256.394 152.69Z" stroke="white" strokeWidth="0.3568" strokeMiterlimit="10"/>
<path d="M265.152 161.958L259.554 161.267L259.908 158.393L265.507 159.084L265.152 161.958Z" fill="#F3A080"/>
<path d="M265.152 161.958L259.554 161.267L259.908 158.393L265.507 159.084L265.152 161.958Z" fill="#F3A080"/>
<path d="M254.546 172.717C256.452 172.717 257.997 171.172 257.997 169.266C257.997 167.36 256.452 165.815 254.546 165.815C252.64 165.815 251.095 167.36 251.095 169.266C251.095 171.172 252.64 172.717 254.546 172.717Z" fill="#F8BF92"/>
<path d="M254.546 172.717C256.452 172.717 257.997 171.172 257.997 169.266C257.997 167.36 256.452 165.815 254.546 165.815C252.64 165.815 251.095 167.36 251.095 169.266C251.095 171.172 252.64 172.717 254.546 172.717Z" fill="#F8BF92"/>
<path d="M254.545 172.103C256.113 172.103 257.383 170.833 257.383 169.266C257.383 167.699 256.113 166.428 254.545 166.428C252.978 166.428 251.708 167.699 251.708 169.266C251.708 170.833 252.978 172.103 254.545 172.103Z" stroke="white" strokeWidth="0.3568" strokeMiterlimit="10"/>
<path d="M27.0908 183.324H281.91" stroke="black" strokeMiterlimit="10" strokeLinecap="round" strokeLinejoin="round"/>
<path d="M205.433 186.842H43.2666" stroke="black" strokeMiterlimit="10" strokeLinecap="round" strokeLinejoin="round"/>
<path d="M228.926 186.842H211.548" stroke="black" strokeMiterlimit="10" strokeLinecap="round" strokeLinejoin="round"/>
<path d="M276.8 186.842H231.803" stroke="black" strokeMiterlimit="10" strokeLinecap="round" strokeLinejoin="round"/>
</g>
<defs>
<linearGradient id="paint0_linear_131_6529" x1="246.959" y1="37.2127" x2="246.959" y2="58.1265" gradientUnits="userSpaceOnUse">
<stop stop-color="#8AB9FD"/>
<stop offset="1" stop-color="#0056E9"/>
</linearGradient>
<linearGradient id="paint1_linear_131_6529" x1="73.3221" y1="20.1718" x2="73.3221" y2="36.9449" gradientUnits="userSpaceOnUse">
<stop stop-color="#8AB9FD"/>
<stop offset="1" stop-color="#0056E9"/>
</linearGradient>
<linearGradient id="paint2_linear_131_6529" x1="75.5879" y1="40.7797" x2="78.2749" y2="44.0846" gradientUnits="userSpaceOnUse">
<stop stop-color="#E4816F"/>
<stop offset="1" stop-color="#E25E52"/>
</linearGradient>
<linearGradient id="paint3_linear_131_6529" x1="263.747" y1="95.9301" x2="266.416" y2="98.8236" gradientUnits="userSpaceOnUse">
<stop stop-color="#E4816F"/>
<stop offset="1" stop-color="#E25E52"/>
</linearGradient>
<linearGradient id="paint4_linear_131_6529" x1="228.589" y1="148.722" x2="230.846" y2="150.979" gradientUnits="userSpaceOnUse">
<stop stop-color="#E4816F"/>
<stop offset="1" stop-color="#E25E52"/>
</linearGradient>
<linearGradient id="paint5_linear_131_6529" x1="205.71" y1="43.2319" x2="209.381" y2="43.2319" gradientUnits="userSpaceOnUse">
<stop stop-color="#E4816F"/>
<stop offset="1" stop-color="#E25E52"/>
</linearGradient>
<linearGradient id="paint6_linear_131_6529" x1="60.2158" y1="127.83" x2="60.2158" y2="50.3424" gradientUnits="userSpaceOnUse">
<stop/>
<stop offset="1" stop-color="#E6D4BE"/>
</linearGradient>
<linearGradient id="paint7_linear_131_6529" x1="180.329" y1="182.209" x2="180.329" y2="166.962" gradientUnits="userSpaceOnUse">
<stop stop-color="#53B0B1"/>
<stop offset="1" stop-color="#6ACAD8"/>
</linearGradient>
<linearGradient id="paint8_linear_131_6529" x1="237.253" y1="180.705" x2="222.502" y2="167.001" gradientUnits="userSpaceOnUse">
<stop stop-color="#EFCDAF"/>
<stop offset="1" stop-color="#EAB896"/>
</linearGradient>
<linearGradient id="paint9_linear_131_6529" x1="227.758" y1="171.887" x2="222.258" y2="166.777" gradientUnits="userSpaceOnUse">
<stop stop-color="#EFCDAF"/>
<stop offset="1" stop-color="#EAB896"/>
</linearGradient>
<linearGradient id="paint10_linear_131_6529" x1="169.02" y1="182.41" x2="170.068" y2="165.805" gradientUnits="userSpaceOnUse">
<stop stop-color="#EFCDAF"/>
<stop offset="1" stop-color="#EAB896"/>
</linearGradient>
<linearGradient id="paint11_linear_131_6529" x1="170.027" y1="177" x2="170.743" y2="165.652" gradientUnits="userSpaceOnUse">
<stop stop-color="#EFCDAF"/>
<stop offset="1" stop-color="#EAB896"/>
</linearGradient>
<linearGradient id="paint12_linear_131_6529" x1="176.773" y1="88.5678" x2="197.067" y2="96.6123" gradientUnits="userSpaceOnUse">
<stop stop-color="#EFCDAF"/>
<stop offset="1" stop-color="#EAB896"/>
</linearGradient>
<linearGradient id="paint13_linear_131_6529" x1="190.417" y1="93.2521" x2="196.447" y2="95.6425" gradientUnits="userSpaceOnUse">
<stop stop-color="#EFCDAF"/>
<stop offset="1" stop-color="#EAB896"/>
</linearGradient>
<linearGradient id="paint14_linear_131_6529" x1="201.596" y1="60.3907" x2="207.884" y2="120.202" gradientUnits="userSpaceOnUse">
<stop stop-color="#E4816F"/>
<stop offset="1" stop-color="#E25E52"/>
</linearGradient>
<linearGradient id="paint15_linear_131_6529" x1="208.576" y1="86.3655" x2="206.631" y2="102.354" gradientUnits="userSpaceOnUse">
<stop stop-color="#EFCDAF"/>
<stop offset="1" stop-color="#EAB896"/>
</linearGradient>
<linearGradient id="paint16_linear_131_6529" x1="214.636" y1="115.575" x2="214.636" y2="111.103" gradientUnits="userSpaceOnUse">
<stop stop-color="#E4816F"/>
<stop offset="1" stop-color="#E25E52"/>
</linearGradient>
<linearGradient id="paint17_linear_131_6529" x1="199.951" y1="101.982" x2="199.951" y2="99.7527" gradientUnits="userSpaceOnUse">
<stop stop-color="#E4816F"/>
<stop offset="1" stop-color="#E25E52"/>
</linearGradient>
<linearGradient id="paint18_linear_131_6529" x1="206.3" y1="94.6008" x2="210.261" y2="94.6008" gradientUnits="userSpaceOnUse">
<stop stop-color="#EFCDAF"/>
<stop offset="1" stop-color="#EAB896"/>
</linearGradient>
<linearGradient id="paint19_linear_131_6529" x1="108.171" y1="93.096" x2="102.717" y2="79.2147" gradientUnits="userSpaceOnUse">
<stop stop-color="#6C273E"/>
<stop offset="1" stop-color="#E6EDF6"/>
</linearGradient>
<linearGradient id="paint20_linear_131_6529" x1="128.332" y1="109.934" x2="126.368" y2="89.2607" gradientUnits="userSpaceOnUse">
<stop stop-color="#6C273E"/>
<stop offset="1" stop-color="#E6EDF6"/>
</linearGradient>
<linearGradient id="paint21_linear_131_6529" x1="162.092" y1="111.622" x2="141.751" y2="24.5936" gradientUnits="userSpaceOnUse">
<stop stop-color="#8AB9FD"/>
<stop offset="1" stop-color="#E6EDF6"/>
</linearGradient>
<linearGradient id="paint22_linear_131_6529" x1="162.092" y1="111.622" x2="141.751" y2="24.5936" gradientUnits="userSpaceOnUse">
<stop stop-color="#8AB9FD"/>
<stop offset="1" stop-color="#E6EDF6"/>
</linearGradient>
<linearGradient id="paint23_linear_131_6529" x1="162.055" y1="111.631" x2="141.715" y2="24.6021" gradientUnits="userSpaceOnUse">
<stop stop-color="#8AB9FD"/>
<stop offset="1" stop-color="#E6EDF6"/>
</linearGradient>
<linearGradient id="paint24_linear_131_6529" x1="154.587" y1="79.674" x2="148.186" y2="52.2891" gradientUnits="userSpaceOnUse">
<stop stop-color="#6C273E"/>
<stop offset="1" stop-color="#E6EDF6"/>
</linearGradient>
<linearGradient id="paint25_linear_131_6529" x1="121.178" y1="50.2458" x2="121.991" y2="50.2458" gradientUnits="userSpaceOnUse">
<stop stop-color="#53B0B1"/>
<stop offset="1" stop-color="#6ACAD8"/>
</linearGradient>
<linearGradient id="paint26_linear_131_6529" x1="118.315" y1="50.8338" x2="121.334" y2="50.8338" gradientUnits="userSpaceOnUse">
<stop stop-color="#53B0B1"/>
<stop offset="1" stop-color="#6ACAD8"/>
</linearGradient>
<linearGradient id="paint27_linear_131_6529" x1="111.413" y1="75.3066" x2="132.392" y2="75.3066" gradientUnits="userSpaceOnUse">
<stop stop-color="#53B0B1"/>
<stop offset="1" stop-color="#6ACAD8"/>
</linearGradient>
<linearGradient id="paint28_linear_131_6529" x1="95.5302" y1="102.489" x2="132.458" y2="102.489" gradientUnits="userSpaceOnUse">
<stop stop-color="#53B0B1"/>
<stop offset="1" stop-color="#6ACAD8"/>
</linearGradient>
<linearGradient id="paint29_linear_131_6529" x1="120.927" y1="66.3456" x2="132.447" y2="66.3456" gradientUnits="userSpaceOnUse">
<stop stop-color="#53B0B1"/>
<stop offset="1" stop-color="#6ACAD8"/>
</linearGradient>
<linearGradient id="paint30_linear_131_6529" x1="132.046" y1="84.5373" x2="175.871" y2="84.5373" gradientUnits="userSpaceOnUse">
<stop stop-color="#53B0B1"/>
<stop offset="1" stop-color="#6ACAD8"/>
</linearGradient>
<linearGradient id="paint31_linear_131_6529" x1="122.761" y1="46.014" x2="120.174" y2="49.2219" gradientUnits="userSpaceOnUse">
<stop stop-color="#E4816F"/>
<stop offset="1" stop-color="#E25E52"/>
</linearGradient>
<linearGradient id="paint32_linear_131_6529" x1="122.761" y1="46.014" x2="120.174" y2="49.2219" gradientUnits="userSpaceOnUse">
<stop stop-color="#E4816F"/>
<stop offset="1" stop-color="#E25E52"/>
</linearGradient>
<linearGradient id="paint33_linear_131_6529" x1="132.316" y1="14.5096" x2="112.598" y2="38.96" gradientUnits="userSpaceOnUse">
<stop stop-color="#E4816F"/>
<stop offset="1" stop-color="#E25E52"/>
</linearGradient>
<linearGradient id="paint34_linear_131_6529" x1="125.96" y1="22.3924" x2="112.291" y2="39.3423" gradientUnits="userSpaceOnUse">
<stop stop-color="#E4816F"/>
<stop offset="1" stop-color="#E25E52"/>
</linearGradient>
<linearGradient id="paint35_linear_131_6529" x1="120.06" y1="46.4814" x2="122.307" y2="46.4814" gradientUnits="userSpaceOnUse">
<stop stop-color="#53B0B1"/>
<stop offset="1" stop-color="#6ACAD8"/>
</linearGradient>
<linearGradient id="paint36_linear_131_6529" x1="111.168" y1="66.8456" x2="112.305" y2="66.8456" gradientUnits="userSpaceOnUse">
<stop stop-color="#53B0B1"/>
<stop offset="1" stop-color="#6ACAD8"/>
</linearGradient>
<linearGradient id="paint37_linear_131_6529" x1="110.747" y1="64.1378" x2="112.801" y2="64.1378" gradientUnits="userSpaceOnUse">
<stop stop-color="#53B0B1"/>
<stop offset="1" stop-color="#6ACAD8"/>
</linearGradient>
<linearGradient id="paint38_linear_131_6529" x1="111.545" y1="67.9271" x2="113.892" y2="67.9271" gradientUnits="userSpaceOnUse">
<stop stop-color="#53B0B1"/>
<stop offset="1" stop-color="#6ACAD8"/>
</linearGradient>
<linearGradient id="paint39_linear_131_6529" x1="177.702" y1="123.514" x2="209.73" y2="109.542" gradientUnits="userSpaceOnUse">
<stop stop-color="#EFCDAF"/>
<stop offset="1" stop-color="#EAB896"/>
</linearGradient>
<linearGradient id="paint40_linear_131_6529" x1="207.085" y1="107.779" x2="214.447" y2="122.773" gradientUnits="userSpaceOnUse">
<stop stop-color="#EFCDAF"/>
<stop offset="1" stop-color="#EAB896"/>
</linearGradient>
<clipPath id="clip0_131_6529">
<rect width="309" height="206" fill="white"/>
</clipPath>
</defs>
</svg>
