<svg width="234" height="234" viewBox="0 0 234 234" fill="none" xmlns="http://www.w3.org/2000/svg">
<path d="M136.089 120.204C134.587 127.428 131.316 135.573 125.62 136.115C121.175 136.538 117.402 131.983 114.704 127.333C112.006 122.683 109.529 117.349 105.463 114.956C101.42 112.577 96.5688 113.728 92.7158 116.599C88.8632 119.469 85.8226 123.862 82.9262 128.259C73.2573 142.938 63.507 159.357 48.5796 163.356C46.0431 164.036 43.3825 163.81 40.9966 162.491C33.854 158.542 33.9532 148.719 35.2215 140.568C39.7981 111.155 55.1171 86.1356 73.4431 68.1396C90.1811 51.7029 110.022 40.1167 130.849 37.6358C151.676 35.1549 173.464 42.2882 189.719 59.5382C205.974 76.7882 216.012 104.523 213.933 131.805C213.709 134.749 213.3 137.831 211.87 140.12C209.957 143.181 206.557 144.1 203.607 143.269C200.655 142.439 198.074 140.141 195.722 137.661C185.033 126.39 177.654 110.752 168.833 96.9801C168.753 96.856 168.673 96.7316 168.593 96.6066C159.004 81.7279 140.544 88.5509 138.136 107.771C137.551 112.443 136.81 116.737 136.089 120.204Z" fill="#FEF0E6"/>
<path opacity="0.7" d="M136.089 120.204C134.587 127.428 131.316 135.573 125.62 136.115C121.175 136.538 117.402 131.983 114.704 127.333C112.006 122.684 109.529 117.35 105.463 114.957C101.42 112.578 96.5688 113.728 92.7158 116.599C88.8632 119.47 85.8226 123.863 82.9262 128.26C73.2573 142.939 63.507 159.357 48.5796 163.357C46.0431 164.036 43.3825 163.81 40.9966 162.491C33.854 158.542 33.9532 148.719 35.2215 140.568C39.7981 111.155 55.1171 86.1361 73.4431 68.1401C90.1811 51.7034 110.022 40.1172 130.849 37.6363C151.676 35.1554 173.464 42.2887 189.719 59.5387C205.974 76.7887 216.012 104.524 213.933 131.805C213.709 134.749 213.3 137.832 211.87 140.12C209.957 143.181 206.557 144.101 203.607 143.27C200.655 142.44 198.074 140.142 195.722 137.662C185.033 126.391 177.654 110.752 168.833 96.9806C168.753 96.8565 168.673 96.732 168.593 96.6071C159.004 81.7284 140.544 88.5514 138.136 107.772C137.551 112.444 136.81 116.738 136.089 120.204Z" fill="#FEF0E6"/>
<path d="M188.315 194.626C188.315 194.626 191.721 178.528 185.518 169.809C179.314 161.089 191.124 169.709 192.483 177.871C192.483 177.871 194.519 163.277 188.501 153.008C182.484 142.74 193.742 151.171 194.699 161.751C194.699 161.751 196.542 148.731 193.778 141.414C191.013 134.097 195.823 138.802 197.672 143.389C199.521 147.976 197.095 159.333 197.095 159.333C197.095 159.333 201.92 138.332 206.488 140.004C211.056 141.675 199.659 155.435 198.078 162.592C198.078 162.592 203.464 152.96 207.55 154.965C211.636 156.97 201.222 157.967 196.453 172.33L194.777 179.064C194.777 179.064 199.733 169.558 202.974 172.557C206.215 175.556 193.365 180.732 190.379 195.14L188.315 194.626Z" fill="#E6D4BE"/>
<path opacity="0.2" d="M188.315 194.626C188.315 194.626 191.721 178.528 185.518 169.809C179.314 161.089 191.124 169.709 192.483 177.871C192.483 177.871 194.519 163.277 188.501 153.008C182.484 142.74 193.742 151.171 194.699 161.751C194.699 161.751 196.542 148.731 193.778 141.414C191.013 134.097 195.823 138.802 197.672 143.389C199.521 147.976 197.095 159.333 197.095 159.333C197.095 159.333 201.92 138.332 206.488 140.004C211.056 141.675 199.659 155.435 198.078 162.592C198.078 162.592 203.464 152.96 207.55 154.965C211.636 156.97 201.222 157.967 196.453 172.33L194.777 179.064C194.777 179.064 199.733 169.558 202.974 172.557C206.215 175.556 193.365 180.732 190.379 195.14L188.315 194.626Z" fill="black"/>
<path d="M188.982 195.552C188.982 195.552 189.698 175.257 199.727 166.662C209.755 158.066 193.041 164.871 188.982 174.242C188.982 174.242 190.892 156.156 201.159 145.65C211.426 135.145 195.429 141.889 191.131 154.275C191.131 154.275 192.802 138.131 198.294 130.192C203.786 122.252 196.623 126.454 193.041 131.396C189.46 136.339 188.982 150.665 188.982 150.665C188.982 150.665 189.46 124.074 183.491 124.715C177.521 125.356 187.072 145.231 186.834 154.275C186.834 154.275 183.252 141.133 177.761 142.317C172.269 143.501 184.446 147.8 185.879 166.423V174.988C185.879 174.988 182.775 162.125 177.999 164.751C173.224 167.378 187.072 177.406 186.356 195.552H188.982Z" fill="#E6D4BE"/>
<path d="M181.917 209.836L193.79 209.837C195.548 209.837 197.494 208.33 198.226 206.217L199.881 201.436L175.826 201.436L177.481 206.216C178.213 208.329 180.159 209.836 181.917 209.836Z" fill="#FF725E" stroke="#263238" strokeWidth="1.182" strokeMiterlimit="10" strokeLinecap="round" strokeLinejoin="round"/>
<path d="M175.534 204.636L200.173 204.637C200.98 204.637 201.983 203.835 202.442 202.787L205.162 196.562C205.854 194.978 205.574 193.598 204.486 193.598L171.221 193.596C170.133 193.596 169.853 194.976 170.545 196.561L173.266 202.786C173.723 203.834 174.728 204.636 175.534 204.636Z" fill="#FF725E" stroke="#263238" strokeWidth="1.182" strokeMiterlimit="10" strokeLinecap="round" strokeLinejoin="round"/>
<path d="M199.881 196.56H205.161" stroke="#263238" strokeWidth="1.182" strokeMiterlimit="10" strokeLinecap="round" strokeLinejoin="round"/>
<path d="M192.992 196.56H196.104" stroke="#263238" strokeWidth="1.182" strokeMiterlimit="10" strokeLinecap="round" strokeLinejoin="round"/>
<path d="M170.545 196.56H191.435" stroke="#263238" strokeWidth="1.182" strokeMiterlimit="10" strokeLinecap="round" strokeLinejoin="round"/>
<path d="M51.1253 132.18L49.9988 130.3C49.6169 129.663 50.076 128.853 50.8187 128.853H52.4946C53.1835 128.853 53.6464 129.559 53.3707 130.191L52.5021 132.18H51.1253V132.18Z" fill="#263238" stroke="#263238" strokeWidth="1.19217" strokeLinecap="round" strokeLinejoin="round"/>
<path d="M52.5019 196.896H51.125V130.982C51.125 130.602 51.4334 130.294 51.8134 130.294C52.1934 130.294 52.5019 130.602 52.5019 130.982V196.896Z" fill="white" stroke="#263238" strokeWidth="1.19217" strokeLinecap="round" strokeLinejoin="round"/>
<path d="M38.592 207.422C38.592 208.902 37.392 210.102 35.9122 210.102C34.4324 210.102 33.2324 208.902 33.2324 207.422C33.2324 205.943 34.4324 204.743 35.9122 204.743C37.392 204.743 38.592 205.943 38.592 207.422Z" fill="#263238"/>
<path d="M52.9005 207.422C52.9005 208.902 51.7006 210.102 50.2208 210.102C48.741 210.102 47.541 208.902 47.541 207.422C47.541 205.943 48.741 204.743 50.2208 204.743C51.7006 204.743 52.9005 205.943 52.9005 207.422Z" fill="#263238"/>
<path d="M35.9122 204.743H33.2324V207.422H35.9122V204.743Z" fill="#5C5C5C"/>
<path d="M52.9376 204.743H50.2578V207.422H52.9376V204.743Z" fill="#5C5C5C"/>
<path d="M52.9741 204.742H33.2324V148.736C33.2324 147.603 34.1511 146.684 35.2846 146.684H50.9224C52.0558 146.684 52.9741 147.603 52.9741 148.736V204.742Z" fill="#BFBFBF" stroke="#263238" strokeWidth="1.19217" strokeMiterlimit="10"/>
<path d="M46.6875 171.967H44.332V183.046H46.6875V171.967Z" fill="#263238" stroke="#263238" strokeWidth="1.19217" strokeLinecap="round" strokeLinejoin="round"/>
<path d="M46.6879 146.682H44.332V145.504C44.332 144.854 44.8595 144.326 45.51 144.326C46.1605 144.326 46.6879 144.854 46.6879 145.504V146.682Z" fill="#263238" stroke="#263238" strokeWidth="1.19217" strokeLinecap="round" strokeLinejoin="round"/>
<path d="M33.2324 149.925C33.2324 149.757 36.7607 146.684 36.7607 146.684" stroke="#263238" strokeWidth="1.19217" strokeLinecap="round" strokeLinejoin="round"/>
<path d="M52.6904 149.925C52.6904 149.757 49.1621 146.684 49.1621 146.684" stroke="#263238" strokeWidth="1.19217" strokeLinecap="round" strokeLinejoin="round"/>
<path d="M33.2275 201.269C33.2275 201.437 36.7553 204.51 36.7553 204.51" stroke="#263238" strokeWidth="1.19217" strokeLinecap="round" strokeLinejoin="round"/>
<path d="M52.9745 201.602C52.9745 201.77 49.4463 204.843 49.4463 204.843" stroke="#263238" strokeWidth="1.19217" strokeLinecap="round" strokeLinejoin="round"/>
<path d="M44.332 146.684H41.9766V204.567H44.332V146.684Z" fill="#5C5C5C" stroke="#263238" strokeWidth="1.19217" strokeLinecap="round" strokeLinejoin="round"/>
<path d="M19.2119 209.979H212.758" stroke="#263238" strokeWidth="1.182" strokeMiterlimit="10" strokeLinecap="round" strokeLinejoin="round"/>
<path d="M124.135 69.4995C123.297 68.9623 122.376 68.5654 121.41 68.3255L118.4 67.5771L111.974 71.3247L130.026 76.8862C130.876 77.1482 131.798 77.0421 132.566 76.5933L133.154 76.2506C133.518 76.0384 133.529 75.5166 133.174 75.29L124.135 69.4995Z" fill="#FFD7C3"/>
<path d="M124.135 69.4995C123.297 68.9623 122.376 68.5654 121.41 68.3255L118.4 67.5771L111.974 71.3247L130.026 76.8862C130.876 77.1482 131.798 77.0421 132.566 76.5933L133.154 76.2506C133.518 76.0384 133.529 75.5166 133.174 75.29L124.135 69.4995Z" fill="#FFD7C3" stroke="#263238" strokeWidth="2" strokeMiterlimit="10" strokeLinecap="round" strokeLinejoin="round"/>
<path d="M121.735 54.8395L110.431 28.7583L104.279 32.3455L108.483 63.7351L122.527 56.197L121.735 54.8395Z" fill="#FFD7C3" stroke="#263238" strokeWidth="2" strokeMiterlimit="10" strokeLinecap="round" strokeLinejoin="round"/>
<path d="M163.411 58.6049L221.372 73.5983C222.225 73.8194 223.124 73.7807 223.956 73.4889L225.559 72.9262C226.51 72.5923 226.694 71.3376 225.888 70.7341C225.421 70.3836 224.803 69.9691 223.99 69.486C220.672 67.515 184.308 46.4194 184.308 46.4194L163.411 58.6049Z" fill="#FFD7C3" stroke="#263238" strokeWidth="2" strokeMiterlimit="10" strokeLinecap="round" strokeLinejoin="round"/>
<path d="M99.699 69.9667C99.0424 71.6934 100.203 73.5848 102.037 73.8048C109.682 74.7179 136.994 76.0544 172.262 55.4884C212.287 32.1477 221.002 22.7623 218.818 17.1477C218.638 16.6834 218.36 16.2622 218.042 15.8808C216.012 13.4532 206.771 4.34535 189.197 14.5919L108.579 61.6038C108.579 61.6038 101.334 65.6664 99.699 69.9667Z" fill="#FFD7C3" stroke="#263238" strokeWidth="2" strokeMiterlimit="10" strokeLinecap="round" strokeLinejoin="round"/>
<path d="M123.944 52.6443L189.197 14.5921C206.771 4.3445 216.012 13.4524 218.042 15.8811C218.362 16.2636 218.638 16.6848 218.818 17.148C221.003 22.7626 212.287 32.148 172.262 55.4887C136.994 76.0547 109.683 74.7193 102.037 73.8051C100.202 73.5862 99.0425 71.6948 99.6991 69.9669C101.334 65.6667 108.579 61.603 108.579 61.603L123.944 52.6443Z" fill="#FFD7C3" stroke="#263238" strokeWidth="2" strokeMiterlimit="10" strokeLinecap="round" strokeLinejoin="round"/>
<path d="M193.211 20.0692L198.696 16.9297" stroke="#263238" strokeWidth="2" strokeMiterlimit="10" strokeLinecap="round" strokeLinejoin="round"/>
<path d="M113.754 65.551L191.253 21.1899" stroke="#263238" strokeWidth="2" strokeMiterlimit="10" strokeLinecap="round" strokeLinejoin="round"/>
<path d="M141.736 51.9379L156.049 43.5905C157.528 42.7283 158.193 40.9053 157.541 39.3212C156.899 37.7647 155.341 36.0258 151.734 35.0431L68.9544 18.5408C68.4216 18.4346 67.8743 18.4258 67.3382 18.5153L61.2327 19.5335C60.7618 19.6119 60.6944 20.2609 61.1388 20.4344L141.736 51.9379Z" fill="#FFD7C3"/>
<path d="M120.168 60.1212C119.699 60.3954 119.274 60.1334 119.219 59.5353L119.119 58.4542C119.065 57.8572 119.4 57.1508 119.87 56.8778C120.339 56.6036 120.764 56.8656 120.818 57.4637L120.918 58.5448C120.974 59.1418 120.637 59.8471 120.168 60.1212Z" fill="#263238"/>
<path d="M123.495 58.1815C123.026 58.4556 122.601 58.1936 122.546 57.5967L122.446 56.5155C122.391 55.9186 122.727 55.2133 123.197 54.9392C123.667 54.665 124.091 54.9281 124.147 55.5239L124.246 56.6051C124.3 57.202 123.964 57.9084 123.495 58.1815Z" fill="#263238"/>
<path d="M126.822 56.2415C126.352 56.5146 125.927 56.2526 125.872 55.6567L125.773 54.5756C125.717 53.9786 126.053 53.2722 126.523 52.9992C126.993 52.725 127.417 52.9881 127.473 53.5851L127.572 54.6662C127.628 55.2621 127.291 55.9674 126.822 56.2415Z" fill="#263238"/>
<path d="M130.15 54.3012C129.681 54.5754 129.255 54.3123 129.201 53.7153L129.102 52.6342C129.046 52.0372 129.382 51.3309 129.852 51.0578C130.322 50.7848 130.747 51.0467 130.802 51.6437L130.901 52.7248C130.954 53.3218 130.619 54.0271 130.15 54.3012Z" fill="#263238"/>
<path d="M133.476 52.3613C133.007 52.6343 132.581 52.3723 132.526 51.7754L132.427 50.6942C132.372 50.0973 132.707 49.3909 133.177 49.1179C133.646 48.8437 134.072 49.1068 134.127 49.7037L134.226 50.7849C134.282 51.3818 133.946 52.0871 133.476 52.3613Z" fill="#263238"/>
<path d="M158.86 37.5592C158.391 37.8334 157.965 37.5703 157.91 36.9733L157.81 35.8922C157.756 35.2953 158.091 34.59 158.561 34.3158C159.03 34.0428 159.455 34.3037 159.51 34.9006L159.609 35.9817C159.665 36.5798 159.329 37.2851 158.86 37.5592Z" fill="#263238"/>
<path d="M162.187 35.6188C161.717 35.8929 161.293 35.6299 161.237 35.0329L161.138 33.9518C161.083 33.3548 161.419 32.6495 161.888 32.3754C162.358 32.1012 162.783 32.3632 162.838 32.9602L162.937 34.0413C162.993 34.6394 162.657 35.3457 162.187 35.6188Z" fill="#263238"/>
<path d="M165.514 33.6791C165.044 33.9533 164.619 33.6902 164.564 33.0933L164.465 32.0121C164.411 31.4152 164.747 30.7088 165.215 30.4357C165.685 30.1616 166.11 30.4247 166.165 31.0216L166.264 32.1028C166.319 32.6997 165.983 33.4061 165.514 33.6791Z" fill="#263238"/>
<path d="M168.841 31.7389C168.371 32.013 167.947 31.7499 167.893 31.153L167.793 30.0719C167.738 29.4749 168.075 28.7685 168.544 28.4955C169.013 28.2213 169.438 28.4833 169.493 29.0814L169.593 30.1625C169.647 30.7595 169.311 31.4647 168.841 31.7389Z" fill="#263238"/>
<path d="M172.168 29.799C171.698 30.0731 171.274 29.8111 171.219 29.2131L171.119 28.1319C171.064 27.535 171.4 26.8286 171.87 26.5555C172.339 26.2814 172.764 26.5434 172.819 27.1403L172.919 28.2215C172.973 28.8195 172.637 29.5248 172.168 29.799Z" fill="#263238"/>
<path d="M175.73 27.7216C175.261 27.9958 174.835 27.7327 174.78 27.1357L174.681 26.0546C174.625 25.4576 174.963 24.7513 175.431 24.4782C175.901 24.204 176.326 24.4671 176.381 25.0641L176.48 26.1452C176.536 26.7422 176.2 27.4475 175.73 27.7216Z" fill="#263238"/>
<path d="M179.057 25.7813C178.587 26.0554 178.163 25.7923 178.107 25.1965L178.008 24.1153C177.953 23.5184 178.289 22.812 178.759 22.5389C179.228 22.2648 179.653 22.5268 179.708 23.1237L179.808 24.2049C179.863 24.8018 179.527 25.5071 179.057 25.7813Z" fill="#263238"/>
<path d="M182.385 23.8416C181.915 24.1158 181.491 23.8538 181.435 23.2568L181.336 22.1757C181.282 21.5787 181.618 20.8734 182.086 20.5993C182.556 20.3251 182.981 20.5882 183.036 21.1852L183.136 22.2663C183.19 22.8622 182.855 23.5675 182.385 23.8416Z" fill="#263238"/>
<path d="M185.711 21.9014C185.241 22.1755 184.817 21.9135 184.761 21.3166L184.662 20.2354C184.608 19.6385 184.944 18.9321 185.413 18.659C185.881 18.3849 186.307 18.6469 186.361 19.2449L186.461 20.3261C186.517 20.9208 186.181 21.6272 185.711 21.9014Z" fill="#263238"/>
<path d="M189.038 19.9613C188.57 20.2354 188.144 19.9734 188.089 19.3765L187.989 18.2953C187.934 17.6984 188.27 16.992 188.74 16.7189C189.21 16.4448 189.634 16.7079 189.69 17.3037L189.789 18.3849C189.844 18.9818 189.508 19.6871 189.038 19.9613Z" fill="#263238"/>
<path d="M202.419 11.5376C201.391 12.0494 200.382 12.8067 199.438 13.8967C199.438 13.8967 200.865 13.6059 202.921 13.3141L202.419 11.5376Z" fill="#263238"/>
<path d="M207.622 12.8152C209.698 12.6803 211.839 12.6726 213.61 12.9534C213.61 12.9534 210.752 10.9713 207.214 10.6772L207.622 12.8152Z" fill="#263238"/>
<path d="M127.245 36.4991C126.536 37.0795 125.803 37.6864 125.048 38.3176C124.672 39.9072 124.968 41.8529 126.005 43.6315C127.042 45.4102 128.59 46.6262 130.158 47.0817C136.796 44.6265 143.372 41.6627 144.605 40.9442C147.128 39.4728 147.584 35.5539 145.623 32.1911C143.662 28.8283 140.086 27.4034 137.503 28.7675C136.634 29.2274 132.641 32.0861 127.245 36.4991Z" fill="#FFD7C3"/>
<path d="M143.746 33.1071C145.085 35.4031 144.774 38.0784 143.051 39.0832C141.327 40.0881 138.846 39.0412 137.507 36.7452C136.168 34.4491 136.48 31.7739 138.202 30.769C139.926 29.7642 142.407 30.8111 143.746 33.1071Z" fill="#263238"/>
<path d="M192.219 49.2987C191.103 49.9487 185.832 53.8112 180.937 57.9489C180.597 59.3882 180.865 61.1514 181.804 62.7621C182.744 64.3727 184.145 65.4738 185.566 65.8872C191.577 63.6641 197.535 60.979 198.65 60.329C200.936 58.9958 201.349 55.4472 199.572 52.4006C197.797 49.3539 194.505 47.9655 192.219 49.2987Z" fill="#FFD7C3"/>
<path d="M192.219 49.2987C191.103 49.9487 185.832 53.8112 180.937 57.9489C180.597 59.3882 180.865 61.1514 181.804 62.7621C182.744 64.3727 184.145 65.4738 185.566 65.8872C191.577 63.6641 197.535 60.979 198.65 60.329C200.936 58.9958 201.349 55.4472 199.572 52.4006C197.797 49.3539 194.505 47.9655 192.219 49.2987Z" fill="#FFD7C3"/>
<path d="M198.222 53.0953C199.498 55.2841 199.201 57.8355 197.558 58.7929C195.916 59.7513 193.55 58.7531 192.273 56.5643C190.996 54.3755 191.294 51.824 192.936 50.8667C194.579 49.9094 196.945 50.9065 198.222 53.0953Z" fill="#263238"/>
<path d="M108.625 65.145L81.3159 58.352C80.7742 58.2171 80.2115 58.195 79.661 58.2878L76.2727 58.8561C75.5011 58.9854 75.4293 60.0665 76.1766 60.2965L102.849 68.5134L108.625 65.145Z" fill="#FFD7C3"/>
<path d="M205.995 10.6489C205.154 10.6799 204.291 10.8181 203.431 11.1143L204.011 13.1683C204.769 13.0721 205.586 12.9826 206.426 12.9085L205.995 10.6489Z" fill="#263238"/>
<path d="M133.328 31.21L69.4441 18.475C68.4215 18.2705 67.8732 18.2628 67.3382 18.3523L61.2327 19.3705C60.7618 19.449 60.6944 20.0979 61.1388 20.2714L141.736 51.7738" stroke="#263238" strokeWidth="2" strokeMiterlimit="10" strokeLinecap="round" strokeLinejoin="round"/>
<path d="M157.542 39.1572C156.901 37.6007 155.342 35.8618 152.224 34.9764L146.539 33.8433" stroke="#263238" strokeWidth="2" strokeMiterlimit="10" strokeLinecap="round" strokeLinejoin="round"/>
<path d="M146.499 34.0423C146.298 33.3646 146.006 32.6848 145.622 32.027C143.661 28.6642 140.086 27.2393 137.503 28.6023C136.633 29.0622 132.64 31.9209 127.244 36.3339" stroke="#263238" strokeWidth="2" strokeMiterlimit="10" strokeLinecap="round" strokeLinejoin="round"/>
<path d="M135.866 44.7091C141.04 42.6651 143.585 41.375 144.605 40.7792C146.635 39.5963 147.327 36.8293 146.5 34.0425" stroke="#263238" strokeWidth="2" strokeMiterlimit="10" strokeLinecap="round" strokeLinejoin="round"/>
<path d="M130.906 46.6379C131.728 46.3339 132.538 46.0266 133.328 45.7192" stroke="#263238" strokeWidth="2" strokeMiterlimit="10" strokeLinecap="round" strokeLinejoin="round"/>
<path d="M156.049 43.427C157.969 41.9678 158.322 40.5661 157.54 39.1577" stroke="#263238" strokeWidth="2" strokeMiterlimit="10" strokeLinecap="round" strokeLinejoin="round"/>
<path d="M152.117 45.7199L153.849 44.7095" stroke="#263238" strokeWidth="2" strokeMiterlimit="10" strokeLinecap="round" strokeLinejoin="round"/>
<path d="M186.058 53.8022C184.436 55.0647 182.663 56.4896 180.937 57.9488" stroke="#263238" strokeWidth="2" strokeMiterlimit="10" strokeLinecap="round" strokeLinejoin="round"/>
<path d="M188.718 51.7729C188.254 52.119 187.76 52.4926 187.242 52.8884" stroke="#263238" strokeWidth="2" strokeMiterlimit="10" strokeLinecap="round" strokeLinejoin="round"/>
<path d="M181.804 62.7624C182.743 64.3731 184.145 65.4741 185.566 65.8876C191.577 63.6645 197.534 60.9793 198.65 60.3293C200.936 58.9961 201.348 55.4476 199.572 52.4009C197.796 49.3554 194.503 47.9669 192.218 49.299C191.873 49.5002 191.129 50.0098 190.122 50.7394" stroke="#263238" strokeWidth="2" strokeMiterlimit="10" strokeLinecap="round" strokeLinejoin="round"/>
<path d="M108.625 65.145L81.3159 58.352C80.7742 58.2171 80.2115 58.195 79.661 58.2878L76.2727 58.8561C75.5011 58.9854 75.4293 60.0665 76.1766 60.2965L102.849 68.5134" fill="#FFD7C3"/>
<path d="M108.625 65.145L81.3159 58.352C80.7742 58.2171 80.2115 58.195 79.661 58.2878L76.2727 58.8561C75.5011 58.9854 75.4293 60.0665 76.1766 60.2965L102.849 68.5134" stroke="#263238" strokeWidth="2" strokeMiterlimit="10" strokeLinecap="round" strokeLinejoin="round"/>
<path d="M66.2609 197.488C66.1681 197.928 66.0725 198.387 66.1875 198.822C66.4801 199.924 67.8974 200.255 69.0328 200.146C70.2368 200.031 71.4867 199.6 72.2177 198.636C72.6782 198.03 72.8872 197.275 73.0869 196.54C74.5004 191.341 75.9139 186.141 77.3273 180.942C77.8203 179.128 78.3154 177.304 78.5173 175.435C78.5551 175.087 78.5794 174.72 78.4336 174.402C78.1372 173.754 77.3031 173.594 76.592 173.549C75.0425 173.451 73.4832 173.503 71.9434 173.705C66.6264 174.401 68.3163 177.977 68.1576 182.126C67.9605 187.288 67.3256 192.433 66.2609 197.488Z" fill="white" stroke="#263238" strokeWidth="1.42277" strokeLinecap="round" strokeLinejoin="round"/>
<path d="M72.9417 207.694C72.3829 208.331 71.5574 208.655 70.7713 208.961C66.0207 210.78 60.8927 212.626 55.973 211.353C55.479 211.229 54.9591 211.041 54.6865 210.618C54.4786 210.306 54.4462 209.923 54.4786 209.553C57.1625 210.19 63.4604 209.916 63.7072 209.65C63.9345 209.403 63.9868 209.052 64.0128 208.715C64.1105 207.382 63.948 205.985 63.2396 204.848C62.7003 203.99 61.8035 203.32 60.8284 203.132C61.6086 202.567 62.3623 201.969 63.0253 201.28C63.0642 201.241 63.103 201.195 63.1489 201.149L63.3827 201.195C65.0402 201.825 65.9046 203.613 66.6129 205.244C66.9444 206.017 67.1523 208.006 67.2759 208.077C67.4125 208.161 70.389 207.531 71.715 206.537C72.5924 205.88 72.5341 203.943 72.1961 202.904C71.8581 201.87 71.0915 200.993 70.1877 200.389C69.7196 200.077 67.0486 199.466 64.6763 198.94C65.3652 197.874 65.9958 196.938 66.3533 197.061C68.5501 197.861 71.9488 198.322 72.5535 198.088C73.9961 197.529 73.7624 202.507 73.7818 204.054C73.7991 205.328 73.7796 206.732 72.9417 207.694Z" fill="#263238" stroke="#263238" strokeWidth="1.42277" strokeLinecap="round" strokeLinejoin="round"/>
<path d="M63.2386 204.847C63.9469 205.984 64.1094 207.382 64.0117 208.714C63.9858 209.052 63.934 209.402 63.7061 209.649C63.4594 209.915 57.1614 210.189 54.4775 209.551C54.4775 209.526 54.4775 209.5 54.484 209.474C54.7308 207.316 56.7133 205.847 58.5263 204.664C59.2929 204.17 60.0731 203.67 60.8268 203.13C61.8019 203.319 62.6992 203.989 63.2386 204.847Z" fill="white" stroke="#263238" strokeWidth="1.42277" strokeLinecap="round" strokeLinejoin="round"/>
<path d="M71.7126 206.536C70.3866 207.531 67.4101 208.161 67.2735 208.077C67.1499 208.006 66.942 206.017 66.6105 205.243C65.9022 203.612 65.0378 201.825 63.3803 201.195L63.1465 201.149C63.6211 200.61 64.1669 199.739 64.6739 198.939C67.0462 199.466 69.7171 200.077 70.1852 200.389C71.0885 200.993 71.8557 201.871 72.1937 202.903C72.5316 203.943 72.59 205.88 71.7126 206.536Z" fill="white" stroke="#263238" strokeWidth="1.42277" strokeLinecap="round" strokeLinejoin="round"/>
<path d="M60.0541 207.455C59.1951 207.903 58.7556 207.636 58.6509 207.682C57.9992 207.973 57.6218 208.913 58.0213 209.503C58.2783 209.884 58.8107 210.008 59.2529 209.885C59.695 209.763 60.377 209.688 60.6604 209.326C61.7526 208.937 62.1392 210.19 63.4522 209.635" stroke="#263238" strokeWidth="1.42277" strokeLinecap="round" strokeLinejoin="round"/>
<path d="M56.9338 208.045C56.7459 208.244 56.5721 208.484 56.538 208.767C56.4873 209.193 56.7756 209.59 57.126 209.762C57.4759 209.935 57.8749 209.934 58.2598 209.93C58.2058 209.921 58.1513 209.912 58.0973 209.902" stroke="#263238" strokeWidth="1.42277" strokeLinecap="round" strokeLinejoin="round"/>
<path d="M55.6772 207.855C55.4099 208.093 55.2744 208.47 55.3295 208.823C55.3651 209.052 55.4823 209.274 55.6723 209.408C55.8618 209.542 56.1264 209.576 56.3316 209.467" stroke="#263238" strokeWidth="1.42277" strokeLinecap="round" strokeLinejoin="round"/>
<path d="M116.603 197.488C116.696 197.928 116.791 198.387 116.676 198.822C116.383 199.924 114.966 200.255 113.831 200.146C112.627 200.031 111.377 199.6 110.646 198.636C110.186 198.03 109.976 197.275 109.777 196.54C108.363 191.341 106.95 186.141 105.536 180.942C105.043 179.128 104.548 177.304 104.346 175.435C104.308 175.087 104.284 174.72 104.43 174.402C104.726 173.754 105.561 173.594 106.272 173.549C107.821 173.451 109.38 173.503 110.92 173.705C116.237 174.401 114.547 177.977 114.706 182.126C114.903 187.288 115.537 192.433 116.603 197.488Z" fill="white" stroke="#263238" strokeWidth="1.42277" strokeLinecap="round" strokeLinejoin="round"/>
<path d="M81.8268 108.946C80.652 108.191 71.6367 140.61 67.5302 155.642C66.1842 160.569 65.5039 165.65 65.5039 170.757V175.246C65.5039 175.246 72.3418 180.189 81.0974 178.734L84.4616 164.326L93.8052 135.083L100.424 166.99L101.949 178.152C101.949 178.152 105.414 179.107 110.871 178.572C114.962 178.171 118.738 176.394 118.738 176.394L118.53 172.85C118.203 167.292 117.483 161.764 116.374 156.309L107.287 111.595C107.287 111.595 97.0343 118.714 81.8268 108.946Z" fill="#263238" stroke="#263238" strokeWidth="1.42277" strokeLinecap="round" strokeLinejoin="round"/>
<path d="M87.3237 69.6463C87.3237 69.6463 80.0684 65.9712 75.4987 65.9712C70.3129 65.9712 60.7161 58.026 60.7161 58.026L52.4107 37.1182L48.0693 38.2881C48.0693 38.2881 48.856 51.0391 49.3694 54.6138C49.8829 58.1885 52.6191 65.1748 52.9441 65.8244C53.2692 66.4744 54.8937 68.424 55.5438 68.5865C56.1938 68.749 63.8302 74.4358 65.6173 75.4104C67.4044 76.3849 74.5533 80.6096 74.5533 80.6096C74.5533 80.6096 78.1274 89.7081 78.615 91.4957C79.1025 93.2828 80.7239 101.206 80.8864 102.505C81.0489 103.806 77.6102 116.572 78.2603 117.709C78.9103 118.846 87.1449 117.879 93.6443 117.879C100.143 117.879 107.965 120.826 108.615 118.876C109.265 116.926 106.723 93.6078 106.723 93.6078C106.723 93.6078 110.136 100.594 111.598 102.869C113.06 105.143 115.334 108.231 116.96 108.231C118.584 108.231 139.219 95.5574 139.219 95.5574L138.244 91.4957C135.237 92.8612 132.071 93.8432 128.82 94.4204C124.271 95.0704 118.097 96.695 118.097 96.695C118.097 96.695 111.658 78.7599 108.614 75.5178C106.545 73.3128 97.1369 71.0236 95.6749 71.0236C94.2123 71.0242 87.3237 69.6463 87.3237 69.6463Z" fill="#85353F"/>
<mask id="mask0_131_6033" style="mask-type:luminance" maskUnits="userSpaceOnUse" x="48" y="37" width="92" height="83">
<path d="M87.3237 69.6463C87.3237 69.6463 80.0684 65.9712 75.4987 65.9712C70.3129 65.9712 60.7161 58.026 60.7161 58.026L52.4107 37.1182L48.0693 38.2881C48.0693 38.2881 48.856 51.0391 49.3694 54.6138C49.8829 58.1885 52.6191 65.1748 52.9441 65.8244C53.2692 66.4744 54.8937 68.424 55.5438 68.5865C56.1938 68.749 63.8302 74.4358 65.6173 75.4104C67.4044 76.3849 74.5533 80.6096 74.5533 80.6096C74.5533 80.6096 78.1274 89.7081 78.615 91.4957C79.1025 93.2828 80.7239 101.206 80.8864 102.505C81.0489 103.806 77.6102 116.572 78.2603 117.709C78.9103 118.846 87.1449 117.879 93.6443 117.879C100.143 117.879 107.965 120.826 108.615 118.876C109.265 116.926 106.723 93.6078 106.723 93.6078C106.723 93.6078 110.136 100.594 111.598 102.869C113.06 105.143 115.334 108.231 116.96 108.231C118.584 108.231 139.219 95.5574 139.219 95.5574L138.244 91.4957C135.237 92.8612 132.071 93.8432 128.82 94.4204C124.271 95.0704 118.097 96.695 118.097 96.695C118.097 96.695 111.658 78.7599 108.614 75.5178C106.545 73.3128 97.1369 71.0236 95.6749 71.0236C94.2123 71.0242 87.3237 69.6463 87.3237 69.6463Z" fill="white"/>
</mask>
<g mask="url(#mask0_131_6033)">
<g opacity="0.2">
<path d="M72.913 72.2046C74.3632 74.4355 75.8134 76.6664 77.2636 78.8978C78.5685 80.9051 79.8735 82.9131 81.2416 84.8783C86.7821 92.8365 93.3506 100.078 100.733 106.365C99.3241 106.602 97.8469 106.423 96.5355 105.855C97.4846 107.711 99.0903 109.222 101 110.057C96.4334 108.824 92.0899 106.77 88.2393 104.023C87.7323 104.638 87.7842 105.572 88.1589 106.276C88.5336 106.979 89.1696 107.502 89.7991 107.991C92.0602 109.745 94.4585 111.322 96.9653 112.702C94.8029 112.245 92.6406 111.788 90.4783 111.33C90.1036 111.251 89.6954 111.175 89.3526 111.345C88.7663 111.634 88.7123 112.512 89.0794 113.054C89.446 113.595 90.0798 113.88 90.6808 114.138C92.5504 114.941 94.4201 115.745 96.2898 116.548C96.975 116.842 97.7535 117.251 97.8717 117.987C91.8356 117.978 85.8 117.969 79.7639 117.959C79.2818 117.958 78.7424 117.934 78.4103 117.584C78.1361 117.295 78.0859 116.864 78.0729 116.466C77.9444 112.549 79.9917 108.877 80.3691 104.976C80.7109 101.44 79.6959 95.3956 78.6641 91.9964C77.5114 88.1976 76.8111 85.51 74.1688 79.6353C72.4887 75.8959 72.913 72.2046 72.913 72.2046Z" fill="black"/>
</g>
<path opacity="0.2" d="M109.148 87.0396C109.148 87.0396 105.599 92.7123 108.049 96.8448C110.498 100.977 108.204 95.1322 109.148 87.0396Z" fill="black"/>
<path opacity="0.2" d="M52.2668 63.9226C51.7215 63.0485 51.3603 62.0599 51.2134 61.0406C51.1751 60.7728 51.154 60.4856 51.2766 60.2448C51.5406 59.7281 60.0954 67.3477 63.8153 70.3836C64.0135 70.5451 64.2985 70.3421 64.2095 70.1023C63.9109 69.2973 63.5265 68.1517 63.4579 67.4223C64.1916 68.704 66.5942 70.9095 68.1297 72.317C68.4466 72.6075 68.9563 72.3856 68.9617 71.9558C68.9752 70.9208 69.0206 69.0344 68.9768 68.5026C71.895 74.4799 73.3873 77.1292 74.6933 80.9679C74.7614 81.1412 73.2205 79.9837 72.6098 79.6041C67.1536 76.2119 60.3459 71.5007 54.8896 68.1085C53.1808 67.0454 52.2668 63.9226 52.2668 63.9226Z" fill="black"/>
</g>
<path d="M87.3236 69.6463C87.3236 69.6463 80.0684 65.9712 75.4987 65.9712C70.3129 65.9712 60.7161 58.026 60.7161 58.026L52.4107 37.1182L48.0693 38.2881C48.0693 38.2881 48.856 51.0391 49.3694 54.6138C49.8829 58.1885 52.6191 65.1748 52.9441 65.8243C53.2692 66.4744 54.8937 68.424 55.5438 68.5865C56.1938 68.749 63.8302 74.4358 65.6173 75.4104C67.4044 76.3849 74.5533 80.6096 74.5533 80.6096C74.5533 80.6096 78.1274 89.7081 78.615 91.4957C79.1025 93.2828 80.7239 101.206 80.8864 102.505C81.0489 103.806 77.6102 116.572 78.2603 117.709C78.9103 118.846 87.1449 117.879 93.6443 117.879C100.143 117.879 107.965 120.826 108.615 118.876C109.265 116.926 106.723 93.6078 106.723 93.6078C106.723 93.6078 110.136 100.594 111.598 102.869C113.06 105.143 115.334 108.231 116.96 108.231C118.584 108.231 139.219 95.5574 139.219 95.5574L138.244 91.4957C135.237 92.8612 132.071 93.8432 128.82 94.4204C124.271 95.0704 118.097 96.695 118.097 96.695C118.097 96.695 111.658 78.7599 108.614 75.5178C106.545 73.3128 97.1369 71.0236 95.6749 71.0236C94.2123 71.0242 87.3236 69.6463 87.3236 69.6463Z" stroke="#263238" strokeWidth="1.42277" strokeLinecap="round" strokeLinejoin="round"/>
<path d="M83.9883 96.3374C83.9883 96.3374 92.7617 106.411 101.861 108.686" stroke="#263238" strokeWidth="1.42277" strokeLinecap="round" strokeLinejoin="round"/>
<path d="M108.528 81.3367L108.814 79.439" stroke="#263238" strokeWidth="1.42277" strokeLinecap="round" strokeLinejoin="round"/>
<path d="M106.865 92.2749L108.25 83.1699" stroke="#263238" strokeWidth="1.42277" strokeLinecap="round" strokeLinejoin="round"/>
<path d="M107.027 90.8129L110.276 83.6641" stroke="#263238" strokeWidth="1.42277" strokeLinecap="round" strokeLinejoin="round"/>
<path d="M135.437 92.9126L136.983 96.8447" stroke="#263238" strokeWidth="1.42277" strokeLinecap="round" strokeLinejoin="round"/>
<path d="M48.2256 41.2388L53.3207 39.8286" stroke="#263238" strokeWidth="1.42277" strokeLinecap="round" strokeLinejoin="round"/>
<path d="M72.3864 68.3125L72.0938 66.9282" stroke="#263238" strokeWidth="1.42277" strokeLinecap="round" strokeLinejoin="round"/>
<path d="M68.4417 65.5964L67.5449 63.6792" stroke="#263238" strokeWidth="1.42277" strokeLinecap="round" strokeLinejoin="round"/>
<path d="M74.3696 78.3023L69.1768 67.1694" stroke="#263238" strokeWidth="1.42277" strokeLinecap="round" strokeLinejoin="round"/>
<path d="M60.5908 57.5054C60.5908 57.5054 62.2154 64.0042 64.328 67.2539" stroke="#263238" strokeWidth="1.42277" strokeLinecap="round" strokeLinejoin="round"/>
<path d="M118.229 96.353C116.506 97.9263 115.563 100.315 115.746 102.64" stroke="#263238" strokeWidth="1.42277" strokeLinecap="round" strokeLinejoin="round"/>
<path d="M84.499 106.847C88.2778 110.005 92.901 112.142 97.7542 112.976" stroke="#263238" strokeWidth="1.42277" strokeLinecap="round" strokeLinejoin="round"/>
<path d="M85.9456 63.1933C85.9456 63.1933 87.2133 69.6927 87.649 70.7714C88.0841 71.8501 88.454 76.3864 92.4385 76.3864C96.0569 76.3864 95.5645 71.9867 95.6752 71.0246C95.7859 70.0625 95.7988 66.3258 95.7988 66.3258C95.7988 66.3258 92.1205 67.3009 90.3917 66.1115C88.6629 64.9221 87.142 62.0039 86.4925 62.0039C85.8414 62.0039 85.9456 63.1933 85.9456 63.1933Z" fill="white"/>
<path d="M90.3847 66.111C88.6495 64.9216 87.135 62.0034 86.485 62.0034C85.8349 62.0034 85.9456 63.1928 85.9456 63.1928C85.9456 63.1928 86.5957 66.2341 87.0897 68.3074C88.2991 69.4552 89.8211 70.2192 91.4634 70.5042C92.9568 70.6181 94.4459 70.237 95.7006 69.419C95.7919 68.3792 95.7919 66.3254 95.7919 66.3254C95.7919 66.3254 92.1135 67.3263 90.3847 66.111Z" fill="#263238"/>
<path d="M85.9466 63.1928C85.9466 63.1928 87.2143 69.6922 87.65 70.7709C88.0851 71.8497 88.455 76.3859 92.4394 76.3859C96.0579 76.3859 95.5655 71.9863 95.6762 71.0241C95.7869 70.062 95.7998 66.3253 95.7998 66.3253C95.7998 66.3253 92.1214 67.3004 90.3927 66.111C88.6639 64.9216 87.143 62.0034 86.4935 62.0034C85.8424 62.0034 85.9466 63.1928 85.9466 63.1928Z" stroke="#263238" strokeWidth="1.42277" strokeLinecap="round" strokeLinejoin="round"/>
<path d="M98.8204 50.3179C98.8204 50.3179 99.1454 55.6208 99.4704 57.9996C99.7954 60.3784 99.8991 63.1989 98.7102 65.0319C97.5208 66.8649 96.3314 68.0602 93.8424 68.3852C91.3535 68.7102 88.221 67.1958 87.2459 65.6814C86.2708 64.167 85.4064 62.6531 85.4064 62.6531C84.6889 62.6304 83.9865 62.4436 83.3526 62.1072C82.3776 61.5679 81.5132 59.0789 81.8382 58.1038C82.1632 57.1287 83.7878 57.0251 83.7878 57.0251C83.7878 57.0251 83.0341 53.6717 82.5984 51.3971C82.1325 48.9368 83.6431 46.5331 86.0624 45.8858C88.7663 45.0149 92.7697 45.1256 94.8229 46.2108C96.8773 47.296 98.281 48.4789 98.8204 50.3179Z" fill="white"/>
<path d="M98.8205 50.3179C98.8205 50.3179 99.1456 55.6209 99.4706 57.9997C99.7956 60.3785 99.8993 63.199 98.7104 65.0319C97.521 66.8649 96.3316 68.0603 93.8426 68.3853C91.3536 68.7103 88.2211 67.1959 87.246 65.6814C86.271 64.167 85.4066 62.6531 85.4066 62.6531C84.6891 62.6304 83.9866 62.4436 83.3528 62.1073C82.3777 61.5679 81.6618 59.1162 81.8384 58.1039C82.2536 55.7277 84.1686 57.7853 84.1686 57.7853C84.1686 57.7853 83.0343 53.6713 82.5986 51.3966C82.1326 48.9363 83.6433 46.5326 86.0626 45.8853C88.7664 45.0144 92.7698 45.1251 94.8231 46.2103C96.8774 47.2961 98.2812 48.479 98.8205 50.3179Z" stroke="#263238" strokeWidth="1.42277" strokeLinecap="round" strokeLinejoin="round"/>
<path d="M97.3057 52.807C96.5244 52.7061 95.7378 52.9426 95.1417 53.4571C94.1666 54.3215 95.5769 58.4291 95.5769 59.0786C95.5769 59.7286 93.5166 60.268 93.5166 60.268" stroke="#263238" strokeWidth="1.42277" strokeLinecap="round" strokeLinejoin="round"/>
<path d="M91.5334 54.7181C90.7872 53.6237 89.2949 53.3419 88.2011 54.088C88.1401 54.1296 88.0807 54.1744 88.0234 54.2219" stroke="#263238" strokeWidth="1.42277" strokeLinecap="round" strokeLinejoin="round"/>
<path d="M97.2475 56.5181C97.3058 56.9926 97.0914 57.4084 96.7664 57.4472C96.4414 57.4861 96.1164 57.1417 96.0645 56.6671C96.0127 56.1925 96.2206 55.7768 96.5456 55.7314C96.8706 55.6861 97.1822 56.0435 97.2475 56.5181Z" fill="#263238"/>
<path d="M138.185 91.2311C138.185 91.2311 138.997 87.9814 139.647 87.1694C140.297 86.3569 141.759 85.8693 142.246 84.8948C142.734 83.9197 143.383 82.6202 143.871 83.2702C144.345 83.7918 144.463 84.546 144.17 85.1874C143.895 85.8434 143.5 86.4433 143.006 86.9551C142.706 87.2671 142.483 87.6456 142.356 88.0597C142.354 88.1974 142.316 88.3318 142.246 88.4495L151.923 84.6864C152.214 84.8219 152.42 85.0913 152.475 85.4077C152.586 85.96 151.871 86.2915 151.54 86.4022C151.208 86.5129 147.172 88.3518 147.172 88.3518L147.615 89.0666L151.793 88.6914C152.184 88.6731 152.515 88.9749 152.534 89.3658C152.55 89.707 152.32 90.0104 151.988 90.0887L147.887 90.8413L147.725 91.5562L151.361 92.2062C151.697 92.2596 151.935 92.5625 151.907 92.9016C151.864 93.2045 151.602 93.428 151.296 93.4215L147.666 93.3238C148.79 93.9738 149.232 94.1947 150.376 94.8123C152.163 95.5482 151.324 96.695 150.264 96.4223C149.768 96.3257 146.99 95.0072 146.99 95.0072C146.99 95.0072 145.69 95.1179 144.56 95.2804C143.429 95.4429 141.96 95.7809 141.349 95.7809C140.608 95.6924 139.875 95.5401 139.159 95.3258L138.185 91.2311Z" fill="white" stroke="#263238" strokeWidth="1.42277" strokeLinecap="round" strokeLinejoin="round"/>
<path d="M151.508 82.3072L149.278 82.0443C149.147 82.0286 149.018 82.0858 148.942 82.1933L148.94 82.1954C148.734 82.4816 148.335 82.5464 148.049 82.3407C147.953 82.271 147.877 82.1754 147.832 82.0653C147.783 81.9417 147.67 81.8553 147.538 81.8396L145.311 81.5772C145.054 81.5438 144.818 81.7246 144.785 81.9811L143.302 94.5598C143.275 94.8173 143.462 95.0479 143.72 95.0748L149.916 95.8053C150.173 95.8388 150.409 95.6579 150.443 95.4015L151.925 82.8228C151.953 82.5647 151.766 82.3342 151.508 82.3072Z" fill="#FF725E"/>
<path d="M152.16 82.7091C152.202 82.3533 151.948 82.0316 151.592 81.9894C151.592 81.9894 151.592 81.9894 151.592 81.9894L145.304 81.2487C144.949 81.2066 144.626 81.4609 144.584 81.8161L143.026 95.0362C142.984 95.3915 143.238 95.7138 143.594 95.7559L149.882 96.4972C150.238 96.5393 150.56 96.285 150.602 95.9298L152.16 82.7091ZM150.444 95.4012C150.41 95.6582 150.174 95.8391 149.917 95.8051L143.721 95.0746C143.463 95.0476 143.277 94.817 143.304 94.5595L144.786 81.9808C144.82 81.7238 145.055 81.5429 145.312 81.577L147.541 81.8394C147.672 81.855 147.785 81.9414 147.834 82.065C147.968 82.3911 148.341 82.5466 148.667 82.4133C148.777 82.3679 148.873 82.2929 148.942 82.1957L148.944 82.1935C149.021 82.0861 149.15 82.0289 149.28 82.0445L151.511 82.3075C151.768 82.3344 151.956 82.565 151.929 82.8225L150.444 95.4012Z" fill="#263238" stroke="#263238" strokeWidth="1.42277" strokeMiterlimit="10" strokeLinecap="round" strokeLinejoin="round"/>
<g opacity="0.2">
<path d="M150.099 81.8135L144.213 95.8283L145.871 96.0216L151.604 81.9911L150.099 81.8135Z" fill="white"/>
</g>
<g opacity="0.2">
<path d="M149.477 81.7397L143.352 95.7265L143.593 95.7535L149.636 81.7586L149.477 81.7397Z" fill="white"/>
</g>
<path d="M89.6592 55.7598C90.3961 55.9509 91.0089 56.5583 91.2071 57.2931C90.7514 56.9233 90.0981 56.8131 89.5469 57.0134" stroke="#263238" strokeWidth="1.42277" strokeLinecap="round" strokeLinejoin="round"/>
<path d="M90.0176 61.6021C90.2411 62.0324 90.659 62.325 91.0828 62.5609C91.721 62.9162 92.4164 63.1834 93.142 63.2725C93.8676 63.3616 94.6251 63.265 95.2762 62.9297" stroke="#263238" strokeWidth="1.42277" strokeLinecap="round" strokeLinejoin="round"/>
<path d="M81.9122 46.6957C81.4964 47.5763 81.3026 48.5444 81.1698 49.5086C80.834 51.9409 80.9031 54.5692 82.2107 56.6473C82.3219 56.8233 82.4558 57.0058 82.6551 57.0668C82.8656 57.1316 83.101 57.0436 83.3105 57.111C83.4935 57.1699 83.6193 57.3335 83.7333 57.4879C84.1382 58.037 84.5426 58.5855 84.9475 59.1346C84.3061 57.5678 84.0253 55.8401 84.2467 54.1621C84.4681 52.4835 85.2066 50.8606 86.4052 49.6647C86.4965 50.4454 87.0769 51.1008 87.7615 51.4869C88.4461 51.8729 89.2316 52.0343 90.0021 52.1898C89.2727 51.5975 88.6745 50.8438 88.2631 49.9989C89.3871 51.0074 91.0414 51.0873 92.5515 51.0933C94.0616 51.0997 95.7046 51.13 96.8805 52.0781C97.821 52.8366 98.2724 54.0476 98.518 55.2311C98.7205 54.1081 99.4526 53.1654 99.9515 52.1391C100.379 51.2596 100.64 50.2991 100.716 49.324C100.768 48.6556 100.732 47.9699 100.506 47.3388C100.302 46.7659 99.9488 46.2579 99.5638 45.7871C97.9236 43.7813 95.6117 42.3344 93.0903 41.7362C90.9685 41.233 88.5719 41.3739 86.6633 42.4985C86.1769 42.7852 85.814 43.1804 85.3686 43.5092C84.9691 43.804 84.5026 43.9541 84.0815 44.2257C83.1507 44.8287 82.3862 45.6921 81.9122 46.6957Z" fill="#263238"/>
<path d="M52.354 31.3689L51.8578 31.9212C51.5782 32.1809 51.1689 32.324 50.818 32.1744L50.3445 31.9665C50.3186 31.3818 51.0339 30.6054 51.3195 30.092C51.3908 29.9684 51.4756 29.8453 51.6057 29.7799C51.7099 29.7281 51.8265 29.7216 51.9437 29.7151C52.2622 29.7087 52.5808 29.7022 52.8993 29.6957C53.0553 29.6957 53.2178 29.6892 53.3739 29.6892C53.4586 29.6892 53.5558 29.6957 53.6206 29.754C53.6724 29.7994 53.7248 29.9619 53.7248 29.9813C54.3749 32.2495 53.7691 35.1963 52.3265 37.0552C52.3265 37.0552 48.9726 38.0448 48.2583 38.8239L45.2726 32.1183C44.8061 31.0698 44.8461 30.3474 45.2013 29.7627C45.9966 28.4545 47.4814 26.2716 48.5023 26.3267C49.5049 26.3807 51.6219 29.8015 51.6219 29.8015L48.8419 32.5372C48.8419 32.5372 45.8303 30.3803 46.989 30.3803C48.1476 30.3803 48.1471 30.3803 48.1471 30.3803L48.2631 30.8435L49.1896 29.801C49.1896 29.801 48.3592 29.307 48.5525 28.1694" fill="white"/>
<path d="M52.354 31.3689L51.8578 31.9212C51.5782 32.1809 51.1689 32.324 50.818 32.1744L50.3445 31.9665C50.3186 31.3818 51.0339 30.6054 51.3195 30.092C51.3908 29.9684 51.4756 29.8453 51.6057 29.7799C51.7099 29.7281 51.8265 29.7216 51.9437 29.7151C52.2622 29.7087 52.5808 29.7022 52.8993 29.6957C53.0553 29.6957 53.2178 29.6892 53.3739 29.6892C53.4586 29.6892 53.5558 29.6957 53.6206 29.754C53.6724 29.7994 53.7248 29.9619 53.7248 29.9813C54.3749 32.2495 53.7691 35.1963 52.3265 37.0552C52.3265 37.0552 48.9726 38.0448 48.2583 38.8239L45.2726 32.1183C44.8061 31.0698 44.8461 30.3474 45.2013 29.7627C45.9966 28.4545 47.4814 26.2716 48.5023 26.3267C49.5049 26.3807 51.6219 29.8015 51.6219 29.8015L48.8419 32.5372C48.8419 32.5372 45.8303 30.3803 46.989 30.3803C48.1476 30.3803 48.1471 30.3803 48.1471 30.3803L48.2631 30.8435L49.1896 29.801C49.1896 29.801 48.3592 29.307 48.5525 28.1694" stroke="#263238" strokeWidth="1.42277" strokeLinecap="round" strokeLinejoin="round"/>
<path d="M49.0762 26.3192C49.3234 26.2479 49.3753 25.8834 49.6155 25.7733C49.8628 25.6561 50.129 25.8775 50.3109 26.0789C50.3304 26.1048 50.3498 26.1242 50.3692 26.1502C50.988 26.8466 51.8513 27.8449 52.8517 29.2244C52.9359 29.3415 53.0272 29.4711 53.0337 29.6142C53.0337 29.6401 53.0337 29.6725 53.0207 29.699" stroke="#263238" strokeWidth="1.42277" strokeLinecap="round" strokeLinejoin="round"/>
<path d="M51.0516 32.3304H50.8113C50.766 32.3758 50.7201 32.4087 50.6683 32.4411C50.5576 32.5188 50.1581 32.3077 50.0215 32.3401C49.6511 32.4314 49.4529 32.4994 49.4141 32.1226" stroke="#263238" strokeWidth="1.42277" strokeLinecap="round" strokeLinejoin="round"/>
<path d="M50.3701 26.1502C50.4743 26.0136 50.5456 25.8446 50.7016 25.7733C50.9484 25.6561 51.2151 25.8775 51.397 26.0789C52.2938 27.0864 53.1452 28.1327 53.9383 29.2244C54.0226 29.3415 54.1138 29.4711 54.1203 29.6142C54.1268 29.8156 53.9837 29.991 53.8406 30.1341" stroke="#263238" strokeWidth="1.42277" strokeLinecap="round" strokeLinejoin="round"/>
<path d="M51.2594 32.2227C50.3701 33.5692 50.2805 34.9405 50.3739 35.8719" stroke="#263238" strokeWidth="1.42277" strokeLinecap="round" strokeLinejoin="round"/>
<path d="M83.0381 56.6468L85.1448 45.7434L86.2473 45.6797" stroke="#BFBFBF" strokeWidth="1.42277" strokeMiterlimit="10" strokeLinecap="round" strokeLinejoin="round"/>
<path d="M92.5456 45.6796C92.5456 46.2913 91.3513 48.3505 89.3963 48.3505C86.8118 48.3505 86.2471 46.2913 86.2471 45.6796C86.2471 45.0679 87.8317 44.5723 89.7861 44.5723C91.7411 44.5723 92.5456 45.0679 92.5456 45.6796Z" stroke="#BFBFBF" strokeWidth="1.42277" strokeMiterlimit="10" strokeLinecap="round" strokeLinejoin="round"/>
<path d="M93.8828 45.6796C93.8828 46.2913 95.0771 48.3505 97.0321 48.3505C99.6166 48.3505 100.181 46.2913 100.181 45.6796C100.181 45.0679 98.5967 44.5723 96.6423 44.5723C94.6873 44.5723 93.8828 45.0679 93.8828 45.6796Z" stroke="#BFBFBF" strokeWidth="1.42277" strokeMiterlimit="10" strokeLinecap="round" strokeLinejoin="round"/>
<path d="M92.4814 45.4004H93.741" stroke="#BFBFBF" strokeWidth="1.42277" strokeMiterlimit="10" strokeLinecap="round" strokeLinejoin="round"/>
<path d="M94.1055 117.885C94.1055 117.885 94.1287 129.911 93.8037 135.083" stroke="#BFBFBF" strokeWidth="1.42277" strokeMiterlimit="10" strokeLinecap="round" strokeLinejoin="round"/>
<path d="M93.9785 130.622C95.1517 130.317 97.2401 129.521 97.6823 128.392C98.1244 127.263 97.7541 118.066 97.7541 118.066" stroke="#BFBFBF" strokeWidth="1.42277" strokeMiterlimit="10" strokeLinecap="round" strokeLinejoin="round"/>
<path d="M67.9648 153.828C67.6041 156.297 67.2424 158.779 67.3013 161.273C67.3596 163.767 67.8601 166.297 69.1197 168.45" stroke="#BFBFBF" strokeWidth="1.42277" strokeMiterlimit="10" strokeLinecap="round" strokeLinejoin="round"/>
<path d="M117.073 159.715C117.084 163 116.406 166.285 115.096 169.297C114.627 170.375 114.035 171.467 113.046 172.102" stroke="#BFBFBF" strokeWidth="1.42277" strokeMiterlimit="10" strokeLinecap="round" strokeLinejoin="round"/>
<path d="M68.0093 165.901C67.5709 169.465 67.3392 172.868 67.3976 175.954" stroke="#BFBFBF" strokeWidth="1.42277" strokeMiterlimit="10" strokeLinecap="round" strokeLinejoin="round"/>
<path d="M70.0829 153.828C69.9544 154.434 69.8286 155.041 69.7061 155.648" stroke="#BFBFBF" strokeWidth="1.42277" strokeMiterlimit="10" strokeLinecap="round" strokeLinejoin="round"/>
<path d="M80.0694 118.649C79.0895 121.732 74.2935 135.26 70.8662 150.604" stroke="#BFBFBF" strokeWidth="1.42277" strokeMiterlimit="10" strokeLinecap="round" strokeLinejoin="round"/>
<path d="M109.922 207.694C110.48 208.331 111.306 208.656 112.092 208.961C116.843 210.781 121.971 212.627 126.89 211.353C127.384 211.229 127.904 211.041 128.177 210.619C128.385 210.307 128.417 209.923 128.385 209.553C125.7 210.19 119.403 209.917 119.156 209.651C118.929 209.403 118.876 209.053 118.85 208.715C118.753 207.383 118.915 205.985 119.624 204.848C120.164 203.99 121.06 203.321 122.035 203.132C121.256 202.567 120.502 201.969 119.839 201.28C119.8 201.241 119.761 201.196 119.715 201.15L119.481 201.195C117.823 201.826 116.959 203.613 116.251 205.244C115.919 206.017 115.711 208.006 115.588 208.077C115.451 208.162 112.475 207.532 111.149 206.537C110.272 205.881 110.33 203.944 110.668 202.904C111.006 201.871 111.773 200.993 112.677 200.389C113.145 200.077 115.816 199.467 118.188 198.94C117.499 197.874 116.869 196.938 116.512 197.062C114.315 197.861 110.916 198.322 110.311 198.089C108.869 197.53 109.103 202.508 109.083 204.055C109.064 205.328 109.083 206.732 109.922 207.694Z" fill="#263238" stroke="#263238" strokeWidth="1.42277" strokeLinecap="round" strokeLinejoin="round"/>
<path d="M119.625 204.847C118.916 205.985 118.754 207.382 118.851 208.714C118.877 209.052 118.929 209.403 119.156 209.65C119.403 209.916 125.701 210.189 128.385 209.552C128.385 209.526 128.385 209.5 128.379 209.474C128.132 207.317 126.149 205.848 124.336 204.665C123.57 204.171 122.789 203.67 122.036 203.131C121.061 203.32 120.164 203.989 119.625 204.847Z" fill="white" stroke="#263238" strokeWidth="1.42277" strokeLinecap="round" strokeLinejoin="round"/>
<path d="M111.15 206.537C112.476 207.531 115.453 208.162 115.589 208.077C115.712 208.006 115.92 206.017 116.252 205.244C116.96 203.613 117.824 201.825 119.481 201.195L119.716 201.15C119.241 200.61 118.695 199.74 118.188 198.94C115.816 199.466 113.145 200.078 112.677 200.389C111.774 200.993 111.006 201.871 110.668 202.904C110.331 203.944 110.273 205.88 111.15 206.537Z" fill="white" stroke="#263238" strokeWidth="1.42277" strokeLinecap="round" strokeLinejoin="round"/>
<path d="M122.808 207.456C123.667 207.904 124.107 207.636 124.212 207.683C124.863 207.973 125.241 208.913 124.841 209.504C124.584 209.885 124.052 210.008 123.61 209.886C123.167 209.763 122.486 209.688 122.202 209.327C121.11 208.938 120.723 210.19 119.41 209.636" stroke="#263238" strokeWidth="1.42277" strokeLinecap="round" strokeLinejoin="round"/>
<path d="M125.855 208.046C126.043 208.245 126.217 208.485 126.251 208.768C126.302 209.194 126.013 209.591 125.663 209.763C125.313 209.936 124.914 209.935 124.529 209.931C124.583 209.922 124.638 209.913 124.692 209.903" stroke="#263238" strokeWidth="1.42277" strokeLinecap="round" strokeLinejoin="round"/>
<path d="M127.112 207.855C127.38 208.093 127.515 208.47 127.46 208.824C127.424 209.053 127.307 209.275 127.117 209.409C126.928 209.543 126.663 209.577 126.458 209.468" stroke="#263238" strokeWidth="1.42277" strokeLinecap="round" strokeLinejoin="round"/>
</svg>
