<svg width="14" height="21" viewBox="0 0 14 21" fill="none" xmlns="http://www.w3.org/2000/svg">
<path d="M7 20.8164C6.76667 20.8164 6.56667 20.7497 6.4 20.6164C6.23333 20.4831 6.10833 20.3081 6.025 20.0914C5.70833 19.1581 5.30833 18.2831 4.825 17.4664C4.35833 16.6497 3.7 15.6914 2.85 14.5914C2 13.4914 1.30833 12.4414 0.775 11.4414C0.258333 10.4414 0 9.23307 0 7.8164C0 5.86641 0.675 4.21641 2.025 2.86641C3.39167 1.49974 5.05 0.816406 7 0.816406C8.95 0.816406 10.6 1.49974 11.95 2.86641C13.3167 4.21641 14 5.86641 14 7.8164C14 9.33307 13.7083 10.5997 13.125 11.6164C12.5583 12.6164 11.9 13.6081 11.15 14.5914C10.25 15.7914 9.56667 16.7914 9.1 17.5914C8.65 18.3747 8.275 19.2081 7.975 20.0914C7.89167 20.3247 7.75833 20.5081 7.575 20.6414C7.40833 20.7581 7.21667 20.8164 7 20.8164ZM7 17.2414C7.28333 16.6747 7.6 16.1164 7.95 15.5664C8.31667 15.0164 8.85 14.2831 9.55 13.3664C10.2667 12.4331 10.85 11.5747 11.3 10.7914C11.7667 9.9914 12 8.99974 12 7.8164C12 6.43307 11.5083 5.25807 10.525 4.29141C9.55833 3.30807 8.38333 2.81641 7 2.81641C5.61667 2.81641 4.43333 3.30807 3.45 4.29141C2.48333 5.25807 2 6.43307 2 7.8164C2 8.99974 2.225 9.9914 2.675 10.7914C3.14167 11.5747 3.73333 12.4331 4.45 13.3664C5.15 14.2831 5.675 15.0164 6.025 15.5664C6.39167 16.1164 6.71667 16.6747 7 17.2414ZM7 10.3164C7.7 10.3164 8.29167 10.0747 8.775 9.59141C9.25833 9.10807 9.5 8.51641 9.5 7.8164C9.5 7.11641 9.25833 6.52474 8.775 6.04141C8.29167 5.55807 7.7 5.31641 7 5.31641C6.3 5.31641 5.70833 5.55807 5.225 6.04141C4.74167 6.52474 4.5 7.11641 4.5 7.8164C4.5 8.51641 4.74167 9.10807 5.225 9.59141C5.70833 10.0747 6.3 10.3164 7 10.3164Z" fill="#FF7500"/>
</svg>
