<svg width="58" height="52" viewBox="0 0 58 52" fill="none" xmlns="http://www.w3.org/2000/svg">
<path d="M54.5003 23.3333H48.8337V6.33329H51.667V0.666626H6.33366V6.33329H9.16699V23.3333H3.50033C2.74888 23.3333 2.02821 23.6318 1.49686 24.1632C0.965503 24.6945 0.666992 25.4152 0.666992 26.1666V51.6666H57.3337V26.1666C57.3337 25.4152 57.0352 24.6945 56.5038 24.1632C55.9724 23.6318 55.2518 23.3333 54.5003 23.3333ZM34.667 46V34.6666H23.3337V46H14.8337V6.33329H43.167V46H34.667Z" fill="#FF7500"/>
<path d="M20.5 12H26.1667V17.6667H20.5V12ZM31.8333 12H37.5V17.6667H31.8333V12ZM20.5 23.3333H26.1667V29H20.5V23.3333ZM31.8333 23.3333H37.5V29H31.8333V23.3333Z" fill="#FF7500"/>
</svg>
